<svg width="14" height="14" viewBox="0 0 14 14" fill="none" xmlns="http://www.w3.org/2000/svg">
<path d="M13.9918 10.5756C13.867 11.5241 13.4012 12.3948 12.6814 13.0249C11.9615 13.6551 11.0369 14.0017 10.0802 14C4.52208 14 6.33416e-06 9.47795 6.33416e-06 3.9199C-0.00170868 2.96319 0.344893 2.03857 0.975076 1.31874C1.60526 0.598902 2.47593 0.133074 3.42446 0.00825843C3.66433 -0.0210292 3.90723 0.028042 4.11691 0.148147C4.32659 0.268251 4.4918 0.452948 4.58788 0.674665L6.06631 3.9752V3.9836C6.13987 4.15332 6.17025 4.33861 6.15474 4.52294C6.13923 4.70726 6.0783 4.88487 5.97741 5.03991C5.96481 5.05881 5.95151 5.07631 5.93751 5.09381L4.48008 6.82142C5.00439 7.88683 6.11881 8.99145 7.19823 9.51715L8.90206 8.06744C8.91879 8.05337 8.93632 8.04028 8.95456 8.02824C9.10947 7.92492 9.28769 7.86185 9.47311 7.84474C9.65852 7.82763 9.84528 7.85701 10.0165 7.93023L10.0256 7.93444L13.3233 9.41215C13.5454 9.50789 13.7306 9.67296 13.8511 9.88267C13.9716 10.0924 14.021 10.3355 13.9918 10.5756Z" fill="#BBDCE1"/>
</svg>
