<svg width="20" height="20" viewBox="0 0 20 20" fill="none" xmlns="http://www.w3.org/2000/svg">
<path fill-rule="evenodd" clip-rule="evenodd" d="M6.41265 11.1589C5.87535 11.1589 5.43884 10.7224 5.43884 10.1851C5.43884 9.6494 5.87535 9.21289 6.41265 9.21289C6.94995 9.21289 7.38646 9.6494 7.38646 10.1851C7.38646 10.7224 6.94995 11.1589 6.41265 11.1589ZM10.1984 11.1589C9.66107 11.1589 9.22456 10.7224 9.22456 10.1851C9.22456 9.6494 9.66107 9.21289 10.1984 9.21289C10.7357 9.21289 11.1722 9.6494 11.1722 10.1851C11.1722 10.7224 10.7357 11.1589 10.1984 11.1589ZM13.0104 10.1851C13.0104 10.7224 13.4469 11.1589 13.9842 11.1589C14.5215 11.1589 14.958 10.7224 14.958 10.1851C14.958 9.6494 14.5215 9.21289 13.9842 9.21289C13.4469 9.21289 13.0104 9.6494 13.0104 10.1851Z" fill="#061737"/>
<path fill-rule="evenodd" clip-rule="evenodd" d="M10.0166 1.66699C5.17496 1.66699 1.66663 5.62209 1.66663 10.0128C1.66663 11.4149 2.07496 12.8579 2.79163 14.1766C2.92496 14.3944 2.94163 14.669 2.84996 14.9286L2.29163 16.798C2.16663 17.2487 2.54996 17.5817 2.97496 17.4482L4.65829 16.9482C5.11663 16.798 5.47496 16.9891 5.89996 17.2487C7.11663 17.9656 8.63329 18.3337 9.99996 18.3337C14.1333 18.3337 18.3333 15.1372 18.3333 9.98781C18.3333 5.54698 14.75 1.66699 10.0166 1.66699Z" stroke="#061737" stroke-width="1.5" stroke-linecap="round" stroke-linejoin="round"/>
</svg>
