<svg width="217" height="181" viewBox="0 0 217 181" fill="none" xmlns="http://www.w3.org/2000/svg">
<path d="M31.7775 163.465C74.1599 185.603 142.844 185.603 185.217 163.465C227.589 141.326 227.599 105.446 185.217 83.3072C142.834 61.1686 74.15 61.1735 31.7775 83.3072C-10.595 105.441 -10.59 141.331 31.7775 163.465Z" fill="#455A64"/>
<path d="M19.2074 128.173H20.9925C21.8106 125.441 22.3469 122.632 22.593 119.791C22.9819 114.53 20.434 106.478 15.767 103.78C11.0999 101.083 8.57191 104.418 10.1376 107.271C11.7032 110.123 16.9836 118.235 17.0534 125.216L19.2074 128.173Z" fill="#F2F2F2"/>
<path d="M18.7786 128.174H19.2772C19.7644 124.729 19.7644 121.232 19.2772 117.787C18.4695 110.961 16.2257 107.79 14.1415 105.586C14.0958 105.538 14.0329 105.51 13.9665 105.508C13.9001 105.506 13.8357 105.531 13.7875 105.576C13.7392 105.622 13.711 105.685 13.7091 105.751C13.7073 105.818 13.7319 105.882 13.7775 105.93C15.8068 108.069 17.9908 111.161 18.7636 117.842C19.2576 121.268 19.2626 124.746 18.7786 128.174Z" fill="white"/>
<path d="M19.3519 128.173C18.4345 123.845 14.266 118.699 10.3319 117.812C5.7696 116.814 3.55075 119.223 4.20394 121.302C4.85713 123.381 8.46213 124.348 11.9624 125.979C13.141 126.524 14.2184 127.266 15.1486 128.173H19.3519Z" fill="#F2F2F2"/>
<path d="M17.6916 128.173H18.2251C16.2954 123.322 11.9076 119.861 8.31756 119.542C8.28506 119.539 8.25221 119.542 8.22094 119.552C8.18966 119.561 8.16062 119.577 8.13551 119.598C8.11041 119.619 8.08975 119.644 8.07477 119.673C8.0598 119.702 8.0508 119.734 8.04831 119.767C8.04415 119.799 8.04676 119.832 8.05597 119.864C8.06519 119.896 8.08081 119.925 8.10186 119.95C8.12291 119.975 8.14895 119.996 8.17834 120.011C8.20773 120.026 8.23985 120.034 8.27269 120.036C11.6633 120.34 15.8068 123.591 17.6916 128.173Z" fill="white"/>
<path d="M180.311 82.5546L184.045 84.5142L184.359 82.1757C182.509 76.9601 184.03 71.0465 186.03 68.5834C188.029 66.1202 187.645 64.3102 186.922 63.5025C186.199 62.6947 183.457 62.0814 180.744 65.2526C178.032 68.4238 177.409 72.2731 177.862 76.1574C178.152 78.5856 179.428 81.0787 180.311 82.5546Z" fill="#F2F2F2"/>
<path opacity="0.2" d="M180.311 82.5546L184.045 84.5142L184.359 82.1757C182.509 76.9601 184.03 71.0465 186.03 68.5834C188.029 66.1202 187.645 64.3102 186.922 63.5025C186.199 62.6947 183.457 62.0814 180.744 65.2526C178.032 68.4238 177.409 72.2731 177.862 76.1574C178.152 78.5856 179.428 81.0787 180.311 82.5546Z" fill="black"/>
<path d="M181.851 83.3628L182.589 83.7517C182.582 83.7378 182.574 83.7244 182.564 83.7119C181.507 82.4553 180.141 76.3024 180.714 72.6974C181.422 68.2448 183.706 65.3378 185.661 64.1062C185.685 64.0915 185.705 64.0721 185.722 64.0492C185.738 64.0263 185.749 64.0004 185.755 63.9729C185.762 63.9454 185.762 63.9171 185.757 63.8894C185.752 63.8618 185.741 63.8355 185.725 63.8121C185.694 63.7644 185.645 63.731 185.589 63.7188C185.533 63.7067 185.475 63.7169 185.426 63.7472C183.432 65.0287 181.019 68.0353 180.286 72.6326C179.757 75.9883 180.814 81.3035 181.851 83.3628Z" fill="white"/>
<path d="M184.12 73.6539C185.212 76.3315 185.207 77.6429 183.427 77.9171C181.821 78.1564 179.872 80.106 181.682 83.2722L192.272 88.8268C192.299 88.2349 192.445 87.6545 192.702 87.1206C192.959 86.5867 193.322 86.1104 193.768 85.7205C195.508 83.9803 197.114 82.6689 196.865 80.7343C196.615 78.7996 194.935 76.9348 194.656 75.2495C194.376 73.5642 195.234 72.6018 197.064 70.7121C198.894 68.8223 200.554 65.8905 198.111 64.5542C195.668 63.2179 192.871 65.5065 191.704 67.0472C190.537 68.588 189.47 69.2661 187.171 69.1365C184.873 69.0068 183.028 70.9763 184.12 73.6539Z" fill="#F2F2F2"/>
<path d="M187.117 86.125C187.067 77.9078 192.955 68.2845 196.231 66.3399C196.28 66.3091 196.314 66.2609 196.328 66.2052C196.342 66.1496 196.334 66.0907 196.306 66.0407C196.276 65.9928 196.229 65.9582 196.174 65.9443C196.119 65.9303 196.061 65.9381 196.012 65.966C192.691 67.9604 186.753 77.5887 186.688 85.9106L187.117 86.125Z" fill="white"/>
<path d="M188.692 77.5838C188.647 77.5941 188.6 77.5889 188.558 77.5689C188.517 77.549 188.483 77.5156 188.463 77.4741C187.512 75.6994 186.711 73.8481 186.07 71.9394C186.061 71.9126 186.058 71.8843 186.06 71.8563C186.063 71.8282 186.071 71.8009 186.084 71.7759C186.097 71.7509 186.114 71.7287 186.136 71.7106C186.157 71.6924 186.182 71.6787 186.209 71.6702C186.236 71.6617 186.264 71.6585 186.292 71.6609C186.32 71.6634 186.348 71.6713 186.373 71.6842C186.398 71.6972 186.42 71.715 186.438 71.7365C186.456 71.758 186.47 71.783 186.478 71.8098C187.114 73.6919 187.905 75.5182 188.842 77.2697C188.868 77.3207 188.874 77.3801 188.857 77.4351C188.84 77.4901 188.803 77.5364 188.752 77.5638L188.692 77.5838Z" fill="white"/>
<path d="M187.276 82.6193C187.235 82.6268 187.193 82.6229 187.154 82.6079C187.116 82.593 187.082 82.5676 187.057 82.5345C187.024 82.4868 187.011 82.4281 187.022 82.3711C187.032 82.3142 187.064 82.2636 187.112 82.2304C189.259 80.7271 191.864 80.0216 194.476 80.2359C194.533 80.2432 194.585 80.2727 194.62 80.3181C194.655 80.3634 194.67 80.4208 194.663 80.4777C194.656 80.5346 194.626 80.5862 194.581 80.6213C194.536 80.6564 194.478 80.672 194.421 80.6647C191.92 80.4743 189.429 81.1446 187.361 82.5644C187.337 82.5882 187.308 82.6068 187.276 82.6193Z" fill="white"/>
<path d="M124.7 32.4228L112.548 25.4072L100.402 32.4228L112.548 39.4383L124.7 32.4228Z" fill="#FDC55E"/>
<path d="M112.549 53.4745L124.7 46.4589V32.4229L112.549 39.4384V53.4745Z" fill="#C48281"/>
<path d="M114.892 48.8175C114.828 48.8187 114.764 48.8032 114.707 48.7726C114.63 48.716 114.568 48.6404 114.528 48.5531C114.488 48.4659 114.471 48.3698 114.478 48.274V46.7782V46.6685H114.553L115.72 45.9854V47.6457C115.718 47.8596 115.665 48.0699 115.565 48.2591C115.466 48.4482 115.322 48.6106 115.146 48.7327C115.071 48.7837 114.983 48.813 114.892 48.8175ZM114.668 46.8878V48.264C114.659 48.3281 114.667 48.3932 114.691 48.4533C114.714 48.5135 114.753 48.5667 114.802 48.6081C114.843 48.6261 114.887 48.6329 114.931 48.6276C114.975 48.6223 115.017 48.6052 115.052 48.5782C115.201 48.474 115.324 48.3363 115.41 48.1761C115.497 48.0159 115.545 47.8377 115.55 47.6557V47.5361H115.116L115.032 46.9527L114.668 46.8878ZM115.266 47.3466H115.535V46.3244L114.837 46.7283L115.181 46.7931L115.266 47.3466Z" fill="white"/>
<path d="M115.101 50.0045C115.076 50.0045 115.052 49.9945 115.034 49.9768C115.017 49.959 115.007 49.9349 115.007 49.9098V48.6632C115.006 48.6506 115.008 48.638 115.012 48.6261C115.017 48.6143 115.024 48.6036 115.033 48.5946C115.042 48.5857 115.052 48.5787 115.064 48.5742C115.076 48.5697 115.089 48.5678 115.101 48.5685C115.126 48.5685 115.151 48.5785 115.168 48.5963C115.186 48.614 115.196 48.6381 115.196 48.6632V49.8898C115.198 49.9037 115.197 49.9179 115.194 49.9314C115.19 49.945 115.183 49.9576 115.174 49.9684C115.165 49.9792 115.154 49.988 115.142 49.9943C115.129 50.0005 115.115 50.004 115.101 50.0045Z" fill="white"/>
<path d="M114.558 50.3184C114.541 50.3183 114.525 50.3136 114.511 50.3048C114.497 50.296 114.485 50.2835 114.478 50.2686C114.471 50.2584 114.467 50.2468 114.465 50.2346C114.463 50.2225 114.463 50.21 114.467 50.1981C114.47 50.1863 114.476 50.1753 114.484 50.1659C114.492 50.1566 114.502 50.149 114.513 50.1439L115.595 49.5157C115.606 49.5094 115.618 49.5054 115.63 49.5037C115.642 49.5021 115.655 49.5029 115.667 49.5062C115.679 49.5094 115.69 49.515 115.7 49.5226C115.71 49.5302 115.718 49.5397 115.725 49.5506C115.736 49.5726 115.739 49.5982 115.732 49.6221C115.726 49.6461 115.711 49.6668 115.69 49.6802L114.603 50.3035L114.558 50.3184Z" fill="white"/>
<path d="M118.427 48.1642C118.393 48.1746 118.357 48.1746 118.322 48.1642C118.286 48.1397 118.257 48.1061 118.237 48.0667C118.218 48.0273 118.21 47.9835 118.213 47.9398V47.6855C118.212 47.6733 118.214 47.6611 118.218 47.6496C118.222 47.6381 118.229 47.6276 118.237 47.6188C118.246 47.6099 118.256 47.6028 118.267 47.598C118.278 47.5932 118.29 47.5907 118.303 47.5907C118.315 47.59 118.328 47.592 118.34 47.5965C118.351 47.601 118.362 47.6079 118.371 47.6169C118.38 47.6258 118.387 47.6366 118.392 47.6484C118.396 47.6602 118.398 47.6729 118.397 47.6855V47.8949C118.397 47.9348 118.397 47.9547 118.397 47.9547C118.397 47.9547 118.427 47.9547 118.457 47.9547C118.515 47.902 118.561 47.8372 118.591 47.7648C118.621 47.6924 118.635 47.6142 118.632 47.5359V45.9004C118.632 45.8882 118.634 45.8761 118.639 45.8649C118.644 45.8537 118.651 45.8435 118.66 45.8351C118.669 45.8267 118.679 45.8202 118.69 45.816C118.702 45.8118 118.714 45.81 118.726 45.8107C118.75 45.8107 118.773 45.8201 118.79 45.837C118.807 45.8538 118.816 45.8766 118.816 45.9004V47.5658C118.82 47.6768 118.798 47.7872 118.752 47.8884C118.706 47.9895 118.638 48.0788 118.552 48.1492C118.512 48.162 118.469 48.1671 118.427 48.1642Z" fill="white"/>
<path d="M117.44 46.7129V46.5534C117.463 46.1381 117.584 45.7341 117.791 45.3738C117.999 45.0136 118.289 44.7071 118.637 44.4791C118.761 44.3744 118.915 44.3105 119.077 44.2961C119.239 44.2817 119.401 44.3175 119.542 44.3986C119.683 44.4797 119.796 44.6022 119.865 44.7495C119.934 44.8969 119.956 45.0618 119.928 45.2221V45.2769L117.44 46.7129ZM119.195 44.4991C119.03 44.5043 118.87 44.5542 118.731 44.6437C118.435 44.839 118.184 45.0953 117.995 45.3954C117.806 45.6954 117.683 46.0325 117.634 46.3839L119.739 45.1722C119.746 45.0545 119.724 44.9368 119.673 44.8303C119.623 44.7237 119.546 44.632 119.449 44.5639C119.372 44.52 119.284 44.4976 119.195 44.4991Z" fill="white"/>
<path d="M121.763 46.2495C121.739 46.2495 121.715 46.2402 121.698 46.2235C121.68 46.2068 121.669 46.184 121.668 46.1597V42.9785C121.668 42.9534 121.678 42.9293 121.696 42.9115C121.714 42.8938 121.738 42.8838 121.763 42.8838C121.788 42.8838 121.812 42.8938 121.83 42.9115C121.848 42.9293 121.858 42.9534 121.858 42.9785V46.1597C121.856 46.184 121.846 46.2068 121.828 46.2235C121.811 46.2402 121.787 46.2495 121.763 46.2495Z" fill="white"/>
<path d="M121.509 43.7021H121.474C121.462 43.6972 121.452 43.6901 121.443 43.6812C121.434 43.6723 121.427 43.6617 121.423 43.6501C121.418 43.6385 121.416 43.6262 121.416 43.6137C121.416 43.6012 121.419 43.5889 121.424 43.5774L121.758 42.8096L122.127 43.2384C122.135 43.2475 122.141 43.2582 122.144 43.2697C122.148 43.2811 122.15 43.2932 122.149 43.3053C122.148 43.3173 122.145 43.329 122.139 43.3398C122.134 43.3506 122.126 43.3602 122.117 43.368C122.108 43.3759 122.097 43.3819 122.086 43.3856C122.074 43.3894 122.062 43.3908 122.05 43.3899C122.038 43.389 122.026 43.3857 122.015 43.3802C122.005 43.3747 121.995 43.3672 121.987 43.358L121.808 43.1586L121.593 43.6572C121.585 43.6719 121.572 43.684 121.557 43.6919C121.542 43.6999 121.525 43.7034 121.509 43.7021Z" fill="white"/>
<path d="M122.646 45.7614C122.621 45.7601 122.598 45.7496 122.582 45.7319C122.565 45.7143 122.556 45.6909 122.556 45.6666V42.4855C122.553 42.4716 122.552 42.4571 122.556 42.4432C122.559 42.4292 122.565 42.4162 122.574 42.405C122.583 42.3938 122.594 42.3848 122.607 42.3786C122.62 42.3724 122.634 42.3691 122.648 42.3691C122.662 42.3691 122.676 42.3724 122.689 42.3786C122.702 42.3848 122.713 42.3938 122.722 42.405C122.731 42.4162 122.737 42.4292 122.74 42.4432C122.744 42.4571 122.744 42.4716 122.74 42.4855V45.6666C122.74 45.6918 122.73 45.7159 122.713 45.7336C122.695 45.7514 122.671 45.7614 122.646 45.7614Z" fill="white"/>
<path d="M122.371 43.208H122.336C122.325 43.2031 122.314 43.196 122.306 43.187C122.297 43.1781 122.29 43.1676 122.285 43.156C122.281 43.1444 122.279 43.132 122.279 43.1195C122.279 43.1071 122.281 43.0948 122.286 43.0833L122.621 42.3154L122.989 42.7442C123.006 42.7618 123.015 42.785 123.015 42.8091C123.015 42.8331 123.006 42.8563 122.989 42.8739C122.971 42.8907 122.947 42.9 122.922 42.9C122.897 42.9 122.873 42.8907 122.855 42.8739L122.68 42.6695L122.466 43.1681C122.456 43.1831 122.441 43.1949 122.424 43.202C122.408 43.2091 122.389 43.2111 122.371 43.208Z" fill="white"/>
<path d="M112.549 53.4745L100.397 46.4589L100.402 32.4229L112.549 39.4384V53.4745Z" fill="#FDC55E"/>
<path d="M107.134 36.3124L119.275 29.2918L117.904 28.499L105.757 35.5195L107.134 36.3124Z" fill="white"/>
<path d="M102.242 40.4705L106.595 42.9636C106.845 43.1285 107.054 43.3496 107.203 43.6093C107.353 43.869 107.44 44.1601 107.458 44.4594V47.142C107.458 47.6954 107.069 47.9198 106.595 47.6406L102.242 45.1475C101.991 44.9829 101.783 44.7618 101.633 44.502C101.483 44.2423 101.396 43.951 101.379 43.6517V40.9691C101.379 40.4156 101.768 40.1962 102.242 40.4705Z" fill="#F2F2F2"/>
<path d="M101.908 41.1387L102.073 41.2384V44.2151L101.908 44.1204V41.1387Z" fill="#F2F2F2"/>
<path d="M102.581 41.5273L102.865 41.6969V44.6736L102.581 44.5091V41.5273Z" fill="#F2F2F2"/>
<path d="M103.254 41.917L103.419 42.0117V44.9935L103.254 44.8987V41.917Z" fill="#F2F2F2"/>
<path d="M103.758 42.2061L104.092 42.4005V45.3823L103.758 45.1828V42.2061Z" fill="#F2F2F2"/>
<path d="M104.596 42.6943L104.765 42.7891V45.7708L104.596 45.6711V42.6943Z" fill="#F2F2F2"/>
<path d="M105.084 42.9688L105.433 43.1782V46.1549L105.079 45.9455L105.084 42.9688Z" fill="#F2F2F2"/>
<path d="M105.942 43.4727L106.106 43.5674V46.5441L105.942 46.4494V43.4727Z" fill="#F2F2F2"/>
<path d="M106.326 43.6865L106.411 43.7364V46.7131L106.326 46.6683V43.6865Z" fill="#F2F2F2"/>
<path d="M105.638 43.3076L105.717 43.3575V46.3342L105.638 46.2893V43.3076Z" fill="#F2F2F2"/>
<path d="M104.281 42.5146L104.361 42.5595V45.5412L104.281 45.4914V42.5146Z" fill="#F2F2F2"/>
<path d="M103.539 42.0859L103.623 42.1358V45.1175L103.539 45.0677V42.0859Z" fill="#F2F2F2"/>
<path d="M103.005 41.792L103.09 41.8419V44.8236L103.005 44.7737V41.792Z" fill="#F2F2F2"/>
<path d="M102.282 41.3535L102.367 41.4034V44.3851L102.282 44.3352V41.3535Z" fill="#F2F2F2"/>
<path d="M106.615 43.8564L106.78 43.9512V46.9329L106.615 46.8382V43.8564Z" fill="#F2F2F2"/>
<path d="M108.5 30.0846L94.3191 21.9023L80.1434 30.0846L94.3191 38.2719L108.5 30.0846Z" fill="#FDC55E"/>
<path d="M88.2409 34.7612L102.422 26.5789L101.045 25.7861L86.8698 33.9684L88.2409 34.7612Z" fill="white"/>
<path d="M94.3191 63.9959L108.5 55.8136V30.085L94.3191 38.2723V63.9959Z" fill="#FDC55E"/>
<path d="M96.6626 59.3635C96.5976 59.3646 96.5336 59.3473 96.4781 59.3136C96.3994 59.258 96.3368 59.1826 96.2965 59.0951C96.2563 59.0075 96.2398 58.911 96.2487 58.815V57.3192V57.2095H96.3285L97.4903 56.5264V58.1868C97.4878 58.4005 97.4345 58.6105 97.3348 58.7995C97.2351 58.9885 97.0918 59.1511 96.9168 59.2738C96.8419 59.3265 96.754 59.3575 96.6626 59.3635ZM96.4382 57.4339V58.81C96.4299 58.8741 96.4379 58.9392 96.4614 58.9993C96.4849 59.0595 96.5232 59.1127 96.5728 59.1541C96.6132 59.1721 96.6577 59.1789 96.7016 59.1736C96.7455 59.1683 96.7871 59.1512 96.8221 59.1242C96.9714 59.02 97.0943 58.8823 97.1809 58.7221C97.2675 58.5619 97.3154 58.3837 97.3207 58.2017V58.082H96.8869L96.8022 57.4987L96.4382 57.4339ZM97.0365 57.8926H97.3307V56.8704L96.6326 57.2793L96.9767 57.3391L97.0365 57.8926Z" fill="white"/>
<path d="M96.872 60.5299C96.8468 60.5299 96.8227 60.5199 96.805 60.5022C96.7872 60.4844 96.7772 60.4603 96.7772 60.4352V59.1836C96.7772 59.1714 96.7797 59.1593 96.7845 59.1481C96.7893 59.1369 96.7964 59.1267 96.8053 59.1183C96.8141 59.1099 96.8246 59.1034 96.8361 59.0992C96.8476 59.095 96.8598 59.0932 96.872 59.0939C96.8962 59.0939 96.9196 59.1031 96.9372 59.1198C96.9549 59.1366 96.9654 59.1594 96.9667 59.1836V60.4352C96.9655 60.4599 96.9551 60.4833 96.9376 60.5008C96.9201 60.5183 96.8967 60.5287 96.872 60.5299Z" fill="white"/>
<path d="M96.3335 60.8593C96.3174 60.8597 96.3015 60.8557 96.2875 60.8478C96.2734 60.8399 96.2618 60.8284 96.2537 60.8145C96.2424 60.7924 96.2397 60.7669 96.2461 60.7429C96.2526 60.7189 96.2677 60.6982 96.2886 60.6848L97.3706 60.0616C97.3814 60.0553 97.3934 60.0513 97.4057 60.0496C97.4181 60.048 97.4307 60.0488 97.4427 60.0521C97.4548 60.0553 97.466 60.0609 97.4759 60.0685C97.4858 60.0762 97.4941 60.0856 97.5003 60.0965C97.5064 60.1069 97.5104 60.1184 97.5119 60.1304C97.5135 60.1424 97.5126 60.1546 97.5094 60.1662C97.5061 60.1779 97.5005 60.1887 97.493 60.1982C97.4854 60.2076 97.476 60.2154 97.4654 60.2211L96.3784 60.8494C96.3648 60.8573 96.3492 60.8608 96.3335 60.8593Z" fill="white"/>
<path d="M100.198 58.6907C100.161 58.6908 100.126 58.6823 100.093 58.6658C100.057 58.6413 100.027 58.6077 100.008 58.5683C99.9889 58.5289 99.9803 58.4851 99.9834 58.4414V58.1821C99.9834 58.1699 99.9859 58.1578 99.9907 58.1466C99.9955 58.1353 100.003 58.1252 100.011 58.1168C100.02 58.1084 100.031 58.1019 100.042 58.0977C100.054 58.0935 100.066 58.0917 100.078 58.0924C100.09 58.0924 100.102 58.0947 100.112 58.0992C100.123 58.1037 100.133 58.1103 100.142 58.1186C100.15 58.127 100.157 58.1369 100.161 58.1478C100.166 58.1586 100.168 58.1703 100.168 58.1821V58.4414C100.168 58.4763 100.168 58.4962 100.168 58.5012C100.168 58.5062 100.198 58.5012 100.228 58.5012C100.286 58.4476 100.332 58.3818 100.362 58.3086C100.392 58.2354 100.406 58.1565 100.402 58.0774V56.417C100.402 56.3919 100.412 56.3678 100.43 56.35C100.448 56.3322 100.472 56.3223 100.497 56.3223C100.522 56.3235 100.545 56.3338 100.563 56.3514C100.58 56.3689 100.59 56.3923 100.592 56.417V58.0774C100.596 58.189 100.574 58.3002 100.528 58.4016C100.481 58.5031 100.41 58.5919 100.322 58.6608C100.284 58.6801 100.241 58.6903 100.198 58.6907Z" fill="white"/>
<path d="M99.2105 57.2393V57.0748C99.2341 56.6603 99.3547 56.2571 99.5626 55.8977C99.7704 55.5383 100.06 55.2327 100.407 55.0055C100.532 54.9008 100.685 54.8369 100.847 54.8225C101.009 54.808 101.172 54.8438 101.313 54.9249C101.454 55.0061 101.567 55.1286 101.636 55.2759C101.705 55.4232 101.727 55.5882 101.699 55.7484V55.8033L99.2105 57.2393ZM100.966 55.0205C100.801 55.028 100.641 55.0778 100.502 55.1651C100.205 55.3609 99.9538 55.618 99.7646 55.919C99.5754 56.22 99.4528 56.5579 99.405 56.9102L101.509 55.6986C101.517 55.5803 101.494 55.462 101.443 55.3548C101.393 55.2475 101.316 55.1548 101.22 55.0853C101.142 55.0428 101.054 55.0206 100.966 55.0205Z" fill="white"/>
<path d="M103.553 56.7759C103.528 56.7759 103.504 56.7659 103.486 56.7482C103.469 56.7304 103.459 56.7063 103.459 56.6812V53.5C103.459 53.4749 103.469 53.4508 103.486 53.433C103.504 53.4153 103.528 53.4053 103.553 53.4053C103.579 53.4053 103.603 53.4153 103.62 53.433C103.638 53.4508 103.648 53.4749 103.648 53.5V56.6812C103.648 56.7063 103.638 56.7304 103.62 56.7482C103.603 56.7659 103.579 56.7759 103.553 56.7759Z" fill="white"/>
<path d="M103.279 54.2274H103.244C103.233 54.223 103.223 54.2164 103.214 54.2079C103.205 54.1995 103.199 54.1894 103.194 54.1782C103.189 54.167 103.187 54.155 103.187 54.1429C103.187 54.1308 103.19 54.1188 103.194 54.1077L103.529 53.3398L103.898 53.7687C103.913 53.7872 103.921 53.8112 103.919 53.8355C103.918 53.8599 103.906 53.8824 103.888 53.8983C103.869 53.9142 103.845 53.922 103.821 53.9202C103.796 53.9183 103.774 53.9068 103.758 53.8883L103.578 53.6839L103.364 54.1825C103.356 54.1972 103.343 54.2093 103.328 54.2172C103.313 54.2252 103.296 54.2287 103.279 54.2274Z" fill="white"/>
<path d="M104.416 56.2818C104.392 56.2818 104.369 56.2724 104.353 56.2555C104.336 56.2387 104.326 56.2159 104.326 56.1921V53.0109C104.326 52.9987 104.327 52.9865 104.332 52.975C104.336 52.9635 104.342 52.9531 104.351 52.9442C104.359 52.9353 104.369 52.9283 104.38 52.9234C104.392 52.9186 104.404 52.9161 104.416 52.9162C104.429 52.9154 104.441 52.9174 104.453 52.9219C104.465 52.9264 104.476 52.9334 104.485 52.9423C104.494 52.9512 104.5 52.962 104.505 52.9738C104.51 52.9856 104.511 52.9983 104.511 53.0109V56.1921C104.511 56.2043 104.508 56.2164 104.503 56.2276C104.499 56.2388 104.492 56.249 104.483 56.2574C104.474 56.2658 104.463 56.2723 104.452 56.2765C104.44 56.2807 104.428 56.2825 104.416 56.2818Z" fill="white"/>
<path d="M104.147 53.7343H104.107C104.085 53.7235 104.067 53.7047 104.058 53.6816C104.049 53.6586 104.048 53.6329 104.057 53.6097L104.391 52.8418L104.765 53.2706C104.781 53.2887 104.789 53.3117 104.789 53.3354C104.789 53.3592 104.781 53.3822 104.765 53.4002C104.756 53.4091 104.746 53.4162 104.734 53.421C104.723 53.4258 104.71 53.4283 104.698 53.4283C104.685 53.4283 104.673 53.4258 104.661 53.421C104.65 53.4162 104.639 53.4091 104.63 53.4002L104.456 53.1958L104.242 53.6944C104.232 53.71 104.217 53.7221 104.2 53.7293C104.183 53.7364 104.165 53.7382 104.147 53.7343Z" fill="white"/>
<path d="M94.3191 63.9959L80.1434 55.8136V30.085L94.3191 38.2723V63.9959Z" fill="#FDC55E"/>
<path d="M83.0254 50.4633L87.3733 52.9564C87.6249 53.1204 87.8344 53.3413 87.9851 53.6011C88.1358 53.8609 88.2234 54.1524 88.2409 54.4522V57.1398C88.2409 57.6882 87.852 57.9126 87.3733 57.6384L83.0254 55.1453C82.7739 54.9815 82.5647 54.7607 82.4148 54.5007C82.2649 54.2408 82.1786 53.9491 82.1628 53.6494V50.9669C82.1628 50.3885 82.5517 50.189 83.0254 50.4633Z" fill="#F5F5F5"/>
<path d="M82.6913 51.1309L82.8558 51.2306V54.2073L82.6913 54.1126V51.1309Z" fill="#E0E0E0"/>
<path d="M83.3644 51.5205L83.6486 51.69V54.6718L83.3644 54.5022V51.5205Z" fill="#E0E0E0"/>
<path d="M84.0327 51.9092L84.2022 52.0039L84.1972 54.9856L84.0327 54.8909V51.9092Z" fill="#E0E0E0"/>
<path d="M84.5412 52.1982L84.8703 52.3927V55.3744L84.5412 55.175V52.1982Z" fill="#E0E0E0"/>
<path d="M85.3788 52.6865L85.5434 52.7813V55.763L85.3788 55.6633V52.6865Z" fill="#E0E0E0"/>
<path d="M85.8625 52.9609L86.2165 53.1704V56.1471L85.8625 55.9377V52.9609Z" fill="#E0E0E0"/>
<path d="M86.7251 53.46L86.8896 53.5597V56.5364L86.7251 56.4417V53.46Z" fill="#E0E0E0"/>
<path d="M87.1091 53.6787L87.1938 53.7286V56.7103L87.1091 56.6604V53.6787Z" fill="#E0E0E0"/>
<path d="M86.421 53.2998L86.5007 53.3497V56.3264L86.421 56.2815V53.2998Z" fill="#E0E0E0"/>
<path d="M85.0647 52.5078L85.1445 52.5527V55.5344L85.0647 55.4846V52.5078Z" fill="#E0E0E0"/>
<path d="M84.3217 52.0781L84.4015 52.128V55.1097L84.3217 55.0599V52.0781Z" fill="#E0E0E0"/>
<path d="M83.7883 51.7842L83.873 51.834V54.8158L83.7883 54.7659V51.7842Z" fill="#E0E0E0"/>
<path d="M83.0652 51.3457L83.15 51.3956V54.3773L83.0652 54.3274V51.3457Z" fill="#E0E0E0"/>
<path d="M87.3983 53.8486L87.5628 53.9434V56.9251L87.3983 56.8304V53.8486Z" fill="#E0E0E0"/>
<path d="M86.8698 37.2895L88.2409 38.0823V34.7615L86.8698 33.9688V37.2895Z" fill="#F0F0F0"/>
<path d="M65.9627 56.9795L55.8358 51.1357L41.6601 59.318L51.787 65.1668L65.9627 56.9795Z" fill="#081956"/>
<path d="M51.787 88.5519L65.9627 80.3696V56.9795L51.787 65.1668V88.5519Z" fill="#FDC55E"/>
<path d="M54.1256 83.9006C54.0622 83.9019 53.9998 83.8846 53.9461 83.8507C53.8678 83.7948 53.8055 83.7193 53.7652 83.6319C53.725 83.5444 53.7083 83.448 53.7167 83.3521V81.8563V81.7466H53.7915L54.9583 81.0635V82.7239C54.9558 82.9376 54.9026 83.1476 54.8028 83.3366C54.7031 83.5256 54.5599 83.6882 54.3849 83.8109C54.3078 83.8631 54.2184 83.894 54.1256 83.9006ZM53.9062 81.971V83.3471C53.8969 83.4112 53.9045 83.4766 53.9281 83.5369C53.9517 83.5973 53.9905 83.6504 54.0408 83.6912C54.0816 83.7073 54.1257 83.713 54.1693 83.7077C54.2128 83.7025 54.2543 83.6865 54.2901 83.6613C54.4395 83.5571 54.5623 83.4194 54.6489 83.2592C54.7355 83.099 54.7834 82.9208 54.7887 82.7388V82.6192H54.355L54.2702 82.0358L53.9062 81.971ZM54.5045 82.4297H54.7738V81.4025L54.0757 81.8114L54.4198 81.8712L54.5045 82.4297Z" fill="white"/>
<path d="M54.3399 85.0865C54.3148 85.0865 54.2907 85.0766 54.2729 85.0588C54.2552 85.041 54.2452 85.0169 54.2452 84.9918V83.7403C54.2452 83.7281 54.2476 83.716 54.2525 83.7047C54.2573 83.6935 54.2643 83.6834 54.2732 83.675C54.2821 83.6666 54.2926 83.6601 54.304 83.6559C54.3155 83.6517 54.3277 83.6499 54.3399 83.6505C54.3637 83.6505 54.3865 83.66 54.4034 83.6768C54.4202 83.6936 54.4297 83.7165 54.4297 83.7403V84.9918C54.4297 85.0161 54.4204 85.0395 54.4037 85.0571C54.387 85.0747 54.3642 85.0853 54.3399 85.0865Z" fill="white"/>
<path d="M53.7964 85.3965C53.7802 85.3974 53.7641 85.3937 53.75 85.3857C53.7358 85.3778 53.7243 85.3659 53.7166 85.3516C53.7095 85.3413 53.7046 85.3296 53.7022 85.3173C53.6998 85.305 53.7 85.2923 53.7029 85.2801C53.7057 85.2679 53.711 85.2564 53.7186 85.2464C53.7261 85.2364 53.7356 85.2281 53.7466 85.2219L54.8336 84.5987C54.8444 84.5924 54.8563 84.5884 54.8686 84.5867C54.881 84.5851 54.8936 84.5859 54.9056 84.5892C54.9177 84.5924 54.929 84.598 54.9388 84.6056C54.9487 84.6133 54.957 84.6227 54.9632 84.6336C54.9693 84.644 54.9733 84.6555 54.9749 84.6675C54.9764 84.6795 54.9756 84.6917 54.9723 84.7033C54.969 84.715 54.9635 84.7258 54.9559 84.7353C54.9483 84.7447 54.9389 84.7525 54.9283 84.7582L53.8413 85.3865C53.8278 85.3944 53.8121 85.3979 53.7964 85.3965Z" fill="white"/>
<path d="M57.6657 83.2474C57.6293 83.2476 57.5934 83.239 57.561 83.2225C57.5246 83.1981 57.4953 83.1644 57.476 83.1251C57.4568 83.0857 57.4482 83.0419 57.4513 82.9981V82.7389C57.4513 82.7151 57.4607 82.6922 57.4776 82.6754C57.4944 82.6586 57.5172 82.6491 57.541 82.6491C57.5532 82.6484 57.5654 82.6502 57.5769 82.6544C57.5884 82.6587 57.5989 82.6652 57.6078 82.6736C57.6166 82.682 57.6237 82.6921 57.6285 82.7033C57.6333 82.7145 57.6358 82.7266 57.6358 82.7389V82.9981C57.6358 83.033 57.6358 83.053 57.6358 83.058C57.6358 83.063 57.6657 83.058 57.6956 83.058C57.7528 83.0035 57.7979 82.9376 57.8279 82.8646C57.858 82.7916 57.8724 82.7131 57.8701 82.6341V80.9737C57.8669 80.9598 57.8668 80.9454 57.8699 80.9315C57.873 80.9175 57.8793 80.9045 57.8881 80.8933C57.897 80.8821 57.9083 80.8731 57.9212 80.8669C57.934 80.8606 57.9481 80.8574 57.9624 80.8574C57.9766 80.8574 57.9907 80.8606 58.0036 80.8669C58.0164 80.8731 58.0277 80.8821 58.0366 80.8933C58.0455 80.9045 58.0517 80.9175 58.0548 80.9315C58.0579 80.9454 58.0579 80.9598 58.0546 80.9737V82.6341C58.0587 82.7452 58.037 82.8557 57.9911 82.9569C57.9453 83.0582 57.8765 83.1474 57.7903 83.2175C57.7516 83.2369 57.709 83.2471 57.6657 83.2474Z" fill="white"/>
<path d="M56.6785 81.8007V81.6362C56.7021 81.2217 56.8227 80.8185 57.0305 80.4591C57.2384 80.0997 57.5277 79.7941 57.8751 79.5669C57.999 79.461 58.1526 79.3962 58.3148 79.3812C58.4771 79.3663 58.64 79.402 58.781 79.4835C58.9221 79.565 59.0345 79.6882 59.1026 79.8362C59.1708 79.9842 59.1914 80.1497 59.1616 80.3098V80.3647L56.6785 81.8007ZM58.4336 79.5819C58.2692 79.5894 58.1095 79.6392 57.9699 79.7265C57.6732 79.9223 57.4218 80.1794 57.2326 80.4804C57.0434 80.7814 56.9208 81.1193 56.8729 81.4716L58.9771 80.255C58.9841 80.1374 58.9613 80.02 58.9107 79.9137C58.8602 79.8073 58.7835 79.7155 58.6879 79.6467C58.6118 79.6033 58.5262 79.5793 58.4386 79.5769L58.4336 79.5819Z" fill="white"/>
<path d="M61.0214 81.3326C60.9963 81.3326 60.9722 81.3226 60.9544 81.3048C60.9367 81.287 60.9267 81.2629 60.9267 81.2378V78.0567C60.9267 78.0315 60.9367 78.0074 60.9544 77.9897C60.9722 77.9719 60.9963 77.9619 61.0214 77.9619C61.0466 77.9619 61.0707 77.9719 61.0884 77.9897C61.1062 78.0074 61.1162 78.0315 61.1162 78.0567V81.2378C61.1162 81.2629 61.1062 81.287 61.0884 81.3048C61.0707 81.3226 61.0466 81.3326 61.0214 81.3326Z" fill="white"/>
<path d="M60.7472 78.8094H60.7123C60.701 78.805 60.6907 78.7984 60.682 78.79C60.6733 78.7815 60.6665 78.7714 60.6618 78.7602C60.6572 78.749 60.6548 78.737 60.6549 78.7249C60.655 78.7128 60.6576 78.7008 60.6624 78.6897L60.9965 77.9219L61.3655 78.3507C61.3813 78.3692 61.3892 78.3933 61.3873 78.4176C61.3855 78.4419 61.374 78.4645 61.3555 78.4803C61.3463 78.4882 61.3357 78.4942 61.3242 78.4979C61.3128 78.5017 61.3007 78.5031 61.2886 78.5022C61.2643 78.5003 61.2417 78.4889 61.2259 78.4704L61.0464 78.2659L60.832 78.7645C60.8235 78.7793 60.8111 78.7913 60.7961 78.7992C60.7811 78.8072 60.7641 78.8107 60.7472 78.8094Z" fill="white"/>
<path d="M61.884 80.8385C61.8598 80.8385 61.8364 80.8292 61.8188 80.8125C61.8011 80.7958 61.7906 80.773 61.7893 80.7487V77.5675C61.7893 77.5424 61.7993 77.5183 61.8171 77.5006C61.8348 77.4828 61.8589 77.4728 61.884 77.4728C61.8967 77.4721 61.9093 77.474 61.9211 77.4785C61.933 77.483 61.9437 77.49 61.9526 77.4989C61.9616 77.5079 61.9685 77.5186 61.973 77.5304C61.9776 77.5423 61.9795 77.5549 61.9788 77.5675V80.7487C61.9788 80.7609 61.9763 80.773 61.9715 80.7843C61.9667 80.7955 61.9596 80.8056 61.9508 80.814C61.9419 80.8224 61.9314 80.8289 61.9199 80.8331C61.9085 80.8373 61.8962 80.8391 61.884 80.8385Z" fill="white"/>
<path d="M61.6098 78.3104C61.5985 78.3146 61.5861 78.3146 61.5749 78.3104C61.5636 78.306 61.5533 78.2994 61.5446 78.291C61.536 78.2825 61.5291 78.2724 61.5244 78.2612C61.5198 78.25 61.5174 78.238 61.5175 78.2259C61.5176 78.2138 61.5202 78.2018 61.525 78.1907L61.8591 77.4229L62.2281 77.8517C62.2446 77.8692 62.2537 77.8924 62.2537 77.9165C62.2537 77.9406 62.2446 77.9637 62.2281 77.9813C62.2193 77.9902 62.2088 77.9973 62.1972 78.0021C62.1857 78.0069 62.1733 78.0094 62.1608 78.0094C62.1483 78.0094 62.1359 78.0069 62.1243 78.0021C62.1128 77.9973 62.1023 77.9902 62.0935 77.9813L61.9189 77.7769L61.7045 78.2755C61.6936 78.2896 61.679 78.3004 61.6622 78.3066C61.6454 78.3128 61.6273 78.3141 61.6098 78.3104Z" fill="white"/>
<path d="M51.787 88.5523L41.6601 82.7085V59.3184L51.787 65.1671V88.5523Z" fill="#FDC55E"/>
<path d="M46.3621 65.3569L47.7333 66.1497V62.8289L46.3621 62.0361V65.3569Z" fill="#F2F2F2"/>
<path d="M47.7333 62.8287L61.9139 54.6414L60.5377 53.8486L46.3621 62.0359L47.7333 62.8287Z" fill="#F2F2F2"/>
<path d="M47.7333 76.8597L29.5089 66.3389L11.2794 76.8597L29.5089 87.3855L47.7333 76.8597Z" fill="#081956"/>
<path d="M29.5088 101.416L47.7332 90.8954V76.8594L29.5088 87.3852V101.416Z" fill="#FDC55E"/>
<path d="M31.8474 96.7601C31.7843 96.7589 31.7225 96.7417 31.6678 96.7102C31.5899 96.6539 31.5279 96.5784 31.4877 96.491C31.4475 96.4037 31.4306 96.3074 31.4385 96.2116V94.7158V94.6061H31.5133L32.68 93.918V95.5833C32.6768 95.7962 32.6232 96.0052 32.5235 96.1933C32.4238 96.3814 32.2809 96.5432 32.1066 96.6653C32.0299 96.7189 31.9405 96.7516 31.8474 96.7601ZM31.623 94.8304V96.2066C31.6141 96.27 31.6219 96.3345 31.6455 96.394C31.6691 96.4534 31.7077 96.5057 31.7576 96.5457C31.7984 96.5643 31.8434 96.5719 31.8881 96.5675C31.9328 96.5631 31.9755 96.547 32.0119 96.5207C32.1607 96.416 32.2831 96.2782 32.3696 96.1181C32.4561 95.9581 32.5044 95.7801 32.5105 95.5983V95.4737H32.0618L31.977 94.8903L31.623 94.8304ZM32.2213 95.2892H32.5105V94.267L31.8174 94.6759L32.1615 94.7357L32.2213 95.2892Z" fill="white"/>
<path d="M32.0567 97.9459C32.0449 97.9459 32.0333 97.9436 32.0224 97.9391C32.0115 97.9346 32.0016 97.9279 31.9933 97.9196C31.9849 97.9113 31.9783 97.9014 31.9738 97.8905C31.9693 97.8796 31.967 97.8679 31.967 97.8561V96.6046C31.9637 96.5907 31.9636 96.5763 31.9668 96.5623C31.9699 96.5484 31.9761 96.5353 31.985 96.5242C31.9939 96.513 32.0051 96.5039 32.018 96.4977C32.0308 96.4915 32.0449 96.4883 32.0592 96.4883C32.0735 96.4883 32.0876 96.4915 32.1004 96.4977C32.1133 96.5039 32.1246 96.513 32.1334 96.5242C32.1423 96.5353 32.1485 96.5484 32.1517 96.5623C32.1548 96.5763 32.1547 96.5907 32.1515 96.6046V97.8561C32.1515 97.8684 32.149 97.8804 32.1442 97.8917C32.1394 97.9029 32.1323 97.913 32.1234 97.9214C32.1146 97.9298 32.1041 97.9363 32.0926 97.9406C32.0811 97.9448 32.0689 97.9466 32.0567 97.9459Z" fill="white"/>
<path d="M31.5132 98.2551C31.4933 98.2538 31.4742 98.2463 31.4588 98.2335C31.4434 98.2208 31.4324 98.2035 31.4274 98.1841C31.4224 98.1647 31.4237 98.1443 31.4311 98.1257C31.4384 98.1071 31.4515 98.0913 31.4684 98.0805L32.5554 97.4573C32.5652 97.4502 32.5765 97.4453 32.5885 97.443C32.6004 97.4406 32.6127 97.4409 32.6245 97.4437C32.6363 97.4466 32.6474 97.4519 32.657 97.4594C32.6666 97.4669 32.6744 97.4764 32.68 97.4872C32.6872 97.4975 32.6921 97.5091 32.6945 97.5215C32.6968 97.5338 32.6966 97.5464 32.6938 97.5586C32.691 97.5709 32.6856 97.5823 32.6781 97.5924C32.6706 97.6024 32.661 97.6107 32.6501 97.6168L31.5631 98.2551H31.5132Z" fill="white"/>
<path d="M35.3826 96.1111C35.3497 96.1184 35.3157 96.1184 35.2828 96.1111C35.2447 96.0868 35.2139 96.0527 35.1937 96.0123C35.1735 95.9719 35.1647 95.9268 35.1681 95.8817V95.6274C35.1681 95.6023 35.1781 95.5782 35.1959 95.5604C35.2137 95.5427 35.2378 95.5327 35.2629 95.5327C35.288 95.5327 35.3121 95.5427 35.3299 95.5604C35.3476 95.5782 35.3576 95.6023 35.3576 95.6274V95.8817C35.3508 95.9028 35.3508 95.9255 35.3576 95.9465C35.3576 95.9465 35.3875 95.9465 35.4224 95.9465C35.4787 95.8916 35.5229 95.8256 35.5521 95.7526C35.5812 95.6796 35.5948 95.6013 35.592 95.5227V93.8623C35.5932 93.8376 35.6036 93.8142 35.6211 93.7967C35.6386 93.7792 35.662 93.7688 35.6867 93.7676C35.7118 93.7676 35.7359 93.7776 35.7537 93.7953C35.7715 93.8131 35.7814 93.8372 35.7814 93.8623V95.5227C35.7856 95.6338 35.7638 95.7443 35.718 95.8455C35.6721 95.9467 35.6034 96.0359 35.5172 96.1061C35.4733 96.1183 35.4272 96.12 35.3826 96.1111Z" fill="white"/>
<path d="M34.4003 94.6601V94.4956C34.422 94.0806 34.5417 93.6767 34.7498 93.317C34.9578 92.9573 35.2481 92.652 35.597 92.4263C35.7209 92.3204 35.8745 92.2556 36.0367 92.2406C36.1989 92.2257 36.3618 92.2614 36.5029 92.3429C36.644 92.4244 36.7564 92.5476 36.8245 92.6956C36.8927 92.8436 36.9132 93.0091 36.8834 93.1692V93.2241L34.4003 94.6601ZM36.1555 92.4412C35.9896 92.4497 35.8285 92.4994 35.6868 92.5858C35.391 92.7822 35.1406 93.0395 34.9522 93.3405C34.7639 93.6414 34.642 93.9791 34.5948 94.331L36.694 93.1144C36.702 92.9972 36.6802 92.8799 36.6304 92.7735C36.5807 92.6671 36.5048 92.5751 36.4098 92.5061C36.3323 92.4621 36.2445 92.4398 36.1555 92.4412Z" fill="white"/>
<path d="M38.7433 94.1969C38.7307 94.1977 38.718 94.1957 38.7062 94.1912C38.6944 94.1867 38.6836 94.1797 38.6747 94.1708C38.6657 94.1618 38.6588 94.1511 38.6543 94.1393C38.6498 94.1275 38.6478 94.1148 38.6485 94.1022V90.921C38.6453 90.9071 38.6452 90.8927 38.6483 90.8787C38.6515 90.8648 38.6577 90.8517 38.6666 90.8406C38.6754 90.8294 38.6867 90.8203 38.6996 90.8141C38.7124 90.8079 38.7265 90.8047 38.7408 90.8047C38.7551 90.8047 38.7692 90.8079 38.782 90.8141C38.7949 90.8203 38.8062 90.8294 38.815 90.8406C38.8239 90.8517 38.8301 90.8648 38.8332 90.8787C38.8364 90.8927 38.8363 90.9071 38.833 90.921V94.1022C38.8337 94.1144 38.8319 94.1266 38.8277 94.1381C38.8235 94.1495 38.817 94.16 38.8086 94.1689C38.8002 94.1778 38.7901 94.1848 38.7788 94.1897C38.7676 94.1945 38.7555 94.1969 38.7433 94.1969Z" fill="white"/>
<path d="M38.4939 91.6484H38.454C38.4425 91.6436 38.4321 91.6364 38.4235 91.6274C38.4149 91.6184 38.4083 91.6077 38.4041 91.5959C38.3999 91.5842 38.3982 91.5717 38.399 91.5593C38.3999 91.5469 38.4033 91.5348 38.4091 91.5237L38.7382 90.7559L39.1122 91.1847C39.1287 91.2038 39.137 91.2288 39.1351 91.254C39.1332 91.2793 39.1214 91.3028 39.1022 91.3193C39.083 91.3358 39.0581 91.3441 39.0328 91.3422C39.0076 91.3403 38.9841 91.3285 38.9676 91.3093L38.7931 91.1049L38.5787 91.6035C38.5698 91.6179 38.5573 91.6296 38.5424 91.6375C38.5275 91.6454 38.5107 91.6491 38.4939 91.6484Z" fill="white"/>
<path d="M39.6058 93.7027C39.5807 93.7027 39.5566 93.6927 39.5388 93.6749C39.521 93.6572 39.511 93.6331 39.511 93.6079V90.4268C39.511 90.4016 39.521 90.3775 39.5388 90.3598C39.5566 90.342 39.5807 90.332 39.6058 90.332C39.6309 90.332 39.655 90.342 39.6728 90.3598C39.6905 90.3775 39.7005 90.4016 39.7005 90.4268V93.6079C39.7005 93.6331 39.6905 93.6572 39.6728 93.6749C39.655 93.6927 39.6309 93.7027 39.6058 93.7027Z" fill="white"/>
<path d="M39.3316 91.1552H39.2967C39.2854 91.1508 39.2751 91.1442 39.2664 91.1358C39.2578 91.1273 39.2509 91.1172 39.2462 91.106C39.2416 91.0948 39.2392 91.0828 39.2393 91.0707C39.2394 91.0586 39.242 91.0467 39.2468 91.0356L39.5809 90.2627L39.9499 90.6915C39.9588 90.7003 39.9658 90.7108 39.9707 90.7224C39.9755 90.7339 39.978 90.7463 39.978 90.7588C39.978 90.7713 39.9755 90.7837 39.9707 90.7953C39.9658 90.8068 39.9588 90.8173 39.9499 90.8261C39.9415 90.8349 39.9315 90.8418 39.9203 90.8466C39.9092 90.8514 39.8972 90.8538 39.8851 90.8538C39.873 90.8538 39.861 90.8514 39.8498 90.8466C39.8387 90.8418 39.8286 90.8349 39.8202 90.8261L39.6407 90.6217L39.4263 91.1203C39.4159 91.135 39.4012 91.1461 39.3843 91.1523C39.3674 91.1586 39.3491 91.1596 39.3316 91.1552Z" fill="white"/>
<path d="M29.5089 101.416L11.2794 90.8954V76.8594L29.5089 87.3852V101.416Z" fill="#FDC55E"/>
<path d="M19.706 85.0473L21.0772 85.8402V82.5194L19.706 81.7266V85.0473Z" fill="#F5F5F5"/>
<path d="M21.0772 82.5188L39.3066 71.998L37.9354 71.2002L19.706 81.726L21.0772 82.5188Z" fill="white"/>
<path d="M14.1664 85.5456L18.5143 88.0387C18.7659 88.2028 18.9754 88.4236 19.1261 88.6834C19.2768 88.9432 19.3644 89.2347 19.3819 89.5345V92.2221C19.3819 92.7706 18.993 92.9949 18.5143 92.7207L14.1664 90.2276C13.9149 90.0638 13.7057 89.843 13.5558 89.583C13.4059 89.3231 13.3196 89.0314 13.3038 88.7318V86.0492C13.3038 85.4907 13.6927 85.2913 14.1664 85.5456Z" fill="#F5F5F5"/>
<path d="M13.8323 86.2139L13.9969 86.3086V89.2903L13.8323 89.1956V86.2139Z" fill="#E0E0E0"/>
<path d="M14.5004 86.6025L14.7896 86.7721V89.7488L14.5004 89.5843V86.6025Z" fill="#E0E0E0"/>
<path d="M15.1735 86.9922L15.3431 87.0869L15.3381 90.0687L15.1735 89.9739V86.9922Z" fill="#E0E0E0"/>
<path d="M15.6822 87.2812L16.0163 87.4757L16.0113 90.4574L15.6822 90.258V87.2812Z" fill="#E0E0E0"/>
<path d="M16.5198 87.7695L16.6844 87.8643V90.846L16.5198 90.7463V87.7695Z" fill="#E0E0E0"/>
<path d="M17.0035 88.0439L17.3575 88.2534V91.2301L17.0035 91.0207V88.0439Z" fill="#E0E0E0"/>
<path d="M17.8661 88.5479L18.0306 88.6426V91.6193L17.8661 91.5246V88.5479Z" fill="#E0E0E0"/>
<path d="M18.2501 88.7617L18.3348 88.8116V91.7883L18.2501 91.7434V88.7617Z" fill="#E0E0E0"/>
<path d="M17.562 88.3828L17.6417 88.4277V91.4094L17.562 91.3645V88.3828Z" fill="#E0E0E0"/>
<path d="M16.2057 87.5898L16.2855 87.6347V90.6164L16.2057 90.5666V87.5898Z" fill="#E0E0E0"/>
<path d="M15.4627 87.1611L15.5475 87.211V90.1877L15.4627 90.1429V87.1611Z" fill="#E0E0E0"/>
<path d="M14.9293 86.8672L15.0141 86.917V89.8988L14.9293 89.8489V86.8672Z" fill="#E0E0E0"/>
<path d="M14.2062 86.4287L14.291 86.4786V89.4553L14.2062 89.4104V86.4287Z" fill="#E0E0E0"/>
<path d="M18.5392 88.9316L18.7037 89.0314V92.0081L18.5392 91.9134V88.9316Z" fill="#E0E0E0"/>
<path d="M43.6844 48.7976L29.5087 40.6104L15.3281 48.7976L29.5087 56.9799L43.6844 48.7976Z" fill="#FFC700"/>
<path d="M29.5088 85.0473L43.6845 76.86V48.7979L29.5088 56.9802V85.0473Z" fill="#FDC55E"/>
<path d="M31.8474 80.3898C31.7847 80.3903 31.7229 80.3748 31.6678 80.3449C31.5899 80.2886 31.5279 80.2131 31.4877 80.1257C31.4475 80.0383 31.4306 79.9421 31.4385 79.8463V78.3504V78.2407H31.5133L32.68 77.5576V79.218C32.6772 79.4316 32.6237 79.6415 32.5241 79.8305C32.4244 80.0194 32.2813 80.182 32.1066 80.305C32.0291 80.3554 31.9397 80.3847 31.8474 80.3898ZM31.623 78.4601V79.8413C31.6151 79.9046 31.6233 79.9688 31.6468 80.0281C31.6703 80.0873 31.7084 80.1397 31.7576 80.1803C31.7984 80.199 31.8434 80.2065 31.8881 80.2021C31.9328 80.1978 31.9755 80.1816 32.0119 80.1554C32.1608 80.0496 32.2832 79.9109 32.3697 79.75C32.4562 79.5892 32.5044 79.4105 32.5105 79.228V79.1083H32.0618L31.977 78.5249L31.623 78.4601ZM32.2213 78.9188H32.5105V77.8967L31.8174 78.3055L32.1615 78.3654L32.2213 78.9188Z" fill="white"/>
<path d="M32.0567 81.5768C32.0445 81.5768 32.0324 81.5743 32.0212 81.5695C32.01 81.5647 31.9999 81.5576 31.9915 81.5488C31.9831 81.5399 31.9765 81.5294 31.9723 81.5179C31.9681 81.5065 31.9663 81.4943 31.967 81.4821V80.2355C31.9663 80.2233 31.9681 80.2111 31.9723 80.1996C31.9765 80.1882 31.9831 80.1777 31.9915 80.1688C31.9999 80.1599 32.01 80.1529 32.0212 80.148C32.0324 80.1432 32.0445 80.1408 32.0567 80.1408C32.0694 80.14 32.082 80.142 32.0938 80.1465C32.1057 80.151 32.1164 80.158 32.1253 80.1669C32.1343 80.1759 32.1412 80.1866 32.1457 80.1984C32.1503 80.2102 32.1522 80.2229 32.1515 80.2355V81.4821C32.1522 81.4947 32.1503 81.5073 32.1457 81.5191C32.1412 81.531 32.1343 81.5417 32.1253 81.5506C32.1164 81.5596 32.1057 81.5665 32.0938 81.5711C32.082 81.5756 32.0694 81.5775 32.0567 81.5768Z" fill="white"/>
<path d="M31.5132 81.8906C31.4933 81.8894 31.4742 81.8818 31.4588 81.8691C31.4434 81.8563 31.4324 81.839 31.4274 81.8197C31.4224 81.8003 31.4237 81.7798 31.4311 81.7612C31.4384 81.7426 31.4515 81.7268 31.4684 81.7161L32.5554 81.0879C32.5772 81.0753 32.6031 81.0719 32.6274 81.0785C32.6517 81.085 32.6724 81.1009 32.685 81.1228C32.6976 81.1446 32.7009 81.1705 32.6944 81.1948C32.6879 81.2191 32.6719 81.2398 32.6501 81.2524L31.5631 81.8757C31.5485 81.8858 31.531 81.891 31.5132 81.8906Z" fill="white"/>
<path d="M35.3825 79.7415C35.347 79.7416 35.3123 79.7312 35.2828 79.7116C35.2447 79.6886 35.2138 79.6554 35.1935 79.6157C35.1733 79.5761 35.1645 79.5316 35.1681 79.4872V79.2329C35.1681 79.2078 35.1781 79.1837 35.1958 79.1659C35.2136 79.1482 35.2377 79.1382 35.2628 79.1382C35.288 79.1382 35.3121 79.1482 35.3298 79.1659C35.3476 79.1837 35.3576 79.2078 35.3576 79.2329V79.4872C35.3507 79.5083 35.3507 79.531 35.3576 79.552C35.3788 79.558 35.4012 79.558 35.4224 79.552C35.4793 79.4987 35.5239 79.4336 35.5532 79.3613C35.5825 79.289 35.5957 79.2111 35.5919 79.1332V77.4728C35.5919 77.4477 35.6019 77.4236 35.6197 77.4058C35.6374 77.3881 35.6615 77.3781 35.6867 77.3781C35.6993 77.3774 35.7119 77.3793 35.7238 77.3838C35.7356 77.3883 35.7463 77.3953 35.7553 77.4042C35.7642 77.4132 35.7712 77.4239 35.7757 77.4357C35.7802 77.4475 35.7821 77.4602 35.7814 77.4728V79.1332C35.7855 79.2443 35.7638 79.3548 35.7179 79.456C35.6721 79.5572 35.6033 79.6464 35.5171 79.7166C35.4749 79.7356 35.4287 79.7441 35.3825 79.7415Z" fill="white"/>
<path d="M34.4003 78.3105V78.1509C34.4228 77.7355 34.5428 77.3312 34.7508 76.9708C34.9587 76.6104 35.2486 76.3041 35.597 76.0767C35.722 75.9732 35.8756 75.9106 36.0373 75.8972C36.199 75.8839 36.3609 75.9204 36.5011 76.002C36.6413 76.0835 36.7532 76.2061 36.8216 76.3532C36.8899 76.5003 36.9115 76.6648 36.8834 76.8246V76.8745L34.4003 78.3105ZM36.1555 76.0966C35.9896 76.1051 35.8285 76.1548 35.6868 76.2412C35.3916 76.4371 35.1415 76.6935 34.9532 76.9936C34.7649 77.2937 34.6427 77.6304 34.5948 77.9814L36.694 76.7698C36.703 76.6525 36.6816 76.5348 36.6318 76.4283C36.582 76.3217 36.5055 76.2298 36.4098 76.1614C36.3348 76.1087 36.2469 76.0777 36.1555 76.0717V76.0966Z" fill="white"/>
<path d="M38.7433 77.8122C38.7182 77.8122 38.6941 77.8022 38.6763 77.7844C38.6585 77.7666 38.6485 77.7425 38.6485 77.7174V74.5362C38.6453 74.5223 38.6452 74.5079 38.6483 74.494C38.6515 74.48 38.6577 74.467 38.6666 74.4558C38.6754 74.4446 38.6867 74.4356 38.6996 74.4294C38.7124 74.4231 38.7265 74.4199 38.7408 74.4199C38.7551 74.4199 38.7692 74.4231 38.782 74.4294C38.7949 74.4356 38.8062 74.4446 38.815 74.4558C38.8239 74.467 38.8301 74.48 38.8332 74.494C38.8364 74.5079 38.8363 74.5223 38.833 74.5362V77.7174C38.8331 77.7417 38.8238 77.7651 38.8071 77.7827C38.7904 77.8003 38.7675 77.8109 38.7433 77.8122Z" fill="white"/>
<path d="M38.4939 75.2744H38.454C38.4425 75.2696 38.4321 75.2624 38.4235 75.2534C38.4149 75.2444 38.4083 75.2336 38.4041 75.2219C38.3999 75.2102 38.3982 75.1977 38.399 75.1853C38.3999 75.1729 38.4033 75.1607 38.4091 75.1497L38.7382 74.3818L39.1122 74.8106C39.1287 74.8282 39.1378 74.8514 39.1378 74.8755C39.1378 74.8996 39.1287 74.9227 39.1122 74.9403C39.0938 74.9571 39.0698 74.9664 39.0449 74.9664C39.02 74.9664 38.9959 74.9571 38.9776 74.9403L38.803 74.7359L38.5886 75.2345C38.5788 75.25 38.5645 75.2622 38.5475 75.2693C38.5306 75.2765 38.5119 75.2782 38.4939 75.2744Z" fill="white"/>
<path d="M39.6058 77.314C39.5811 77.3128 39.5576 77.3024 39.5401 77.2849C39.5226 77.2674 39.5123 77.244 39.511 77.2193V74.0381C39.511 74.013 39.521 73.9889 39.5388 73.9711C39.5566 73.9533 39.5807 73.9434 39.6058 73.9434C39.6309 73.9434 39.655 73.9533 39.6728 73.9711C39.6905 73.9889 39.7005 74.013 39.7005 74.0381V77.2193C39.6993 77.244 39.6889 77.2674 39.6714 77.2849C39.6539 77.3024 39.6305 77.3128 39.6058 77.314Z" fill="white"/>
<path d="M39.3316 74.7851H39.2967C39.2852 74.7802 39.2748 74.7731 39.2661 74.7642C39.2574 74.7553 39.2505 74.7447 39.2459 74.7331C39.2412 74.7216 39.2389 74.7092 39.2391 74.6967C39.2392 74.6842 39.2419 74.6719 39.2468 74.6604L39.5809 73.8926L39.9499 74.3214C39.9588 74.3302 39.9658 74.3407 39.9706 74.3522C39.9755 74.3638 39.9779 74.3762 39.9779 74.3887C39.9779 74.4012 39.9755 74.4136 39.9706 74.4252C39.9658 74.4367 39.9588 74.4472 39.9499 74.456C39.9318 74.4715 39.9088 74.48 39.885 74.48C39.8613 74.48 39.8383 74.4715 39.8202 74.456L39.6407 74.2516L39.4263 74.7502C39.4154 74.7644 39.4007 74.7751 39.384 74.7813C39.3672 74.7875 39.3491 74.7888 39.3316 74.7851Z" fill="white"/>
<path d="M29.5087 85.0473L15.3281 76.86V48.7979L29.5087 56.9802V85.0473Z" fill="#FDC55E"/>
<path d="M22.0545 55.9975L23.4307 56.7903V53.4745L22.0545 52.6768V55.9975Z" fill="#F2F2F2"/>
<path d="M23.4307 53.4742L37.6064 45.2869L36.2352 44.4941L22.0545 52.6764L23.4307 53.4742Z" fill="#F2F2F2"/>
<path d="M18.2152 71.5096L22.5631 74.0027C22.8149 74.1662 23.0243 74.387 23.1742 74.647C23.3241 74.907 23.4103 75.1988 23.4257 75.4986V78.1811C23.4257 78.7296 23.0418 78.954 22.5631 78.6797L18.2152 76.1867C17.9628 76.0234 17.7526 75.8028 17.6019 75.5429C17.4511 75.2829 17.3639 74.9909 17.3476 74.6908V72.0082C17.3526 71.4598 17.7365 71.2354 18.2152 71.5096Z" fill="#F5F5F5"/>
<path d="M17.8761 72.1826L18.0406 72.2773V75.2591L17.8761 75.1594V72.1826Z" fill="#E0E0E0"/>
<path d="M18.5492 72.5713L18.8334 72.7358V75.7176L18.5492 75.548V72.5713Z" fill="#E0E0E0"/>
<path d="M19.2224 72.9561L19.3869 73.0558V76.0325L19.2224 75.9378V72.9561Z" fill="#E0E0E0"/>
<path d="M19.7308 73.2451L20.0599 73.4446V76.4213L19.7308 76.2269V73.2451Z" fill="#E0E0E0"/>
<path d="M20.5687 73.7334L20.7333 73.8281V76.8099L20.5687 76.7151V73.7334Z" fill="#E0E0E0"/>
<path d="M21.0523 74.0078L21.4063 74.2172V77.199L21.0523 76.9895V74.0078Z" fill="#E0E0E0"/>
<path d="M21.9149 74.5117L22.0795 74.6065V77.5882L21.9149 77.4885V74.5117Z" fill="#E0E0E0"/>
<path d="M22.2988 74.7305L22.3786 74.7753V77.7571L22.2988 77.7072V74.7305Z" fill="#E0E0E0"/>
<path d="M21.6058 74.3467L21.6905 74.3965V77.3783L21.6058 77.3284V74.3467Z" fill="#E0E0E0"/>
<path d="M20.2496 73.5537L20.3343 73.6036V76.5803L20.2496 76.5354V73.5537Z" fill="#E0E0E0"/>
<path d="M19.5066 73.1299L19.5914 73.1748V76.1565L19.5066 76.1066V73.1299Z" fill="#E0E0E0"/>
<path d="M18.978 72.8359L19.0578 72.8808V75.8625L18.978 75.8127V72.8359Z" fill="#E0E0E0"/>
<path d="M18.255 72.3975L18.3348 72.4423V75.4241L18.255 75.3742V72.3975Z" fill="#E0E0E0"/>
<path d="M22.583 74.9004L22.7525 74.9951V77.9719L22.583 77.8771V74.9004Z" fill="#E0E0E0"/>
<path d="M15.4628 126.054L69.8819 157.467C70.5509 157.806 71.2906 157.983 72.0409 157.983C72.7911 157.983 73.5308 157.806 74.1999 157.467L193.434 88.6574C194.626 87.9693 194.626 86.8524 193.434 86.1643L139.015 54.7515C138.347 54.4097 137.607 54.2314 136.856 54.2314C136.105 54.2314 135.365 54.4097 134.697 54.7515L15.4628 123.561C14.2711 124.249 14.2711 125.366 15.4628 126.054Z" fill="#455A64"/>
<path d="M44.8762 140.638C45.804 141.106 46.8287 141.35 47.8679 141.35C48.9071 141.35 49.9318 141.106 50.8596 140.638C52.52 139.681 52.52 138.145 50.8596 137.173C49.9325 136.702 48.9075 136.457 47.8679 136.457C46.8283 136.457 45.8033 136.702 44.8762 137.173C43.2158 138.145 43.2158 139.691 44.8762 140.638Z" fill="#263238"/>
<path d="M70.904 157.467L16.4849 126.054C15.4179 125.435 15.3082 124.478 16.1509 123.79C15.6186 124.211 15.181 124.739 14.8666 125.341C14.5522 125.942 14.3679 126.603 14.3259 127.28V129.31C14.3669 130.059 14.5837 130.788 14.9587 131.437C15.3338 132.087 15.8567 132.639 16.4849 133.049L70.904 164.462C71.5694 164.81 72.3126 164.981 73.063 164.961V157.985C72.3109 158 71.5676 157.821 70.904 157.467Z" fill="#37474F"/>
<path d="M193.429 95.648C194.059 95.2391 194.583 94.6873 194.959 94.0374C195.335 93.3876 195.552 92.6581 195.593 91.9084V89.879C195.553 89.2008 195.369 88.5389 195.053 87.9372C194.738 87.3355 194.298 86.8077 193.763 86.3887C194.611 87.0768 194.501 88.0341 193.434 88.6474L74.1998 157.467C73.534 157.813 72.7911 157.984 72.0408 157.965V164.981C72.7911 165 73.534 164.828 74.1998 164.482L193.429 95.648Z" fill="#263238"/>
<path d="M78.8469 150.959L26.7614 120.873C26.0434 120.459 26.0434 119.786 26.7614 119.377L127.442 61.2333C127.844 61.0292 128.288 60.9229 128.739 60.9229C129.189 60.9229 129.633 61.0292 130.035 61.2333L182.14 91.3149C182.853 91.7287 182.853 92.3969 182.14 92.8107L81.4198 150.959C81.0207 151.16 80.5801 151.265 80.1334 151.265C79.6866 151.265 79.246 151.16 78.8469 150.959Z" fill="white"/>
<path d="M57.8603 134.161L63.9384 130.651L61.914 129.484L55.8359 132.99L57.8603 134.161Z" fill="#F2F2F2"/>
<path d="M130.778 92.0628L136.856 88.5525L134.827 87.3857L128.753 90.896L130.778 92.0628Z" fill="#F2F2F2"/>
<path d="M142.929 85.0471L149.007 81.5369L146.983 80.3701L140.905 83.8754L142.929 85.0471Z" fill="#F2F2F2"/>
<path d="M162.435 72.757C162.671 72.875 162.932 72.9365 163.196 72.9365C163.46 72.9365 163.72 72.875 163.956 72.757C164.047 72.7257 164.127 72.6666 164.183 72.5879C164.239 72.5092 164.27 72.4149 164.27 72.3182C164.27 72.2215 164.239 72.1272 164.183 72.0485C164.127 71.9698 164.047 71.9107 163.956 71.8794C163.721 71.7591 163.46 71.6963 163.196 71.6963C162.931 71.6963 162.671 71.7591 162.435 71.8794C162.344 71.9107 162.264 71.9698 162.208 72.0485C162.152 72.1272 162.121 72.2215 162.121 72.3182C162.121 72.4149 162.152 72.5092 162.208 72.5879C162.264 72.6666 162.344 72.7257 162.435 72.757Z" fill="#263238"/>
<path d="M164.863 79.6421C165.334 79.8804 165.854 80.0046 166.382 80.0046C166.909 80.0046 167.429 79.8804 167.9 79.6421C168.738 79.1435 168.738 78.3706 167.9 77.8869C167.429 77.6486 166.909 77.5244 166.382 77.5244C165.854 77.5244 165.334 77.6486 164.863 77.8869C164.026 78.3706 164.026 79.1584 164.863 79.6421Z" fill="#263238"/>
<path d="M162.719 76.5912C163.278 76.2671 163.248 75.7286 162.655 75.3845L152.682 69.6155C152.361 69.4435 152.004 69.3501 151.64 69.3432C151.276 69.3363 150.915 69.4159 150.588 69.5756C150.03 69.8997 150.059 70.4382 150.653 70.7823L160.655 76.5513C160.972 76.7181 161.324 76.8085 161.682 76.8155C162.041 76.8224 162.396 76.7456 162.719 76.5912Z" fill="#263238"/>
<path d="M145.697 53.1957L146.036 52.9962C145.802 53.8471 145.687 54.7265 145.697 55.609V56.8256C145.697 61.1935 150.937 72.3525 152.867 76.3016C153.066 76.7154 150.419 79.5326 150.419 79.5326L153.565 77.7176C153.565 77.7176 161.428 71.2356 161.428 65.9104V64.6938C161.428 59.3436 157.908 52.9763 153.565 50.4682C151.371 49.2067 149.391 49.1619 147.965 50.1192L144.974 51.8344L145.697 53.1957ZM149.631 57.2793C149.631 54.7863 151.391 53.7541 153.565 55.0106C153.385 56.6212 156.327 61.6373 157.494 61.8217C157.494 64.3148 155.734 65.347 153.565 64.0904C152.423 63.3425 151.474 62.3361 150.794 61.1527C150.114 59.9693 149.722 58.6423 149.651 57.2793H149.631Z" fill="#F2F2F2"/>
<path d="M142.461 58.7755C142.55 64.1207 150.668 79.5329 150.668 79.5329C150.668 79.5329 158.426 72.9412 158.342 67.596V66.3794C158.252 61.0342 154.627 54.7217 150.239 52.2885C145.851 49.8552 142.371 52.2087 142.461 57.5589V58.7755ZM146.4 59.1644C146.36 56.6713 148.105 55.6093 150.294 56.8259C151.451 57.5533 152.42 58.5432 153.123 59.7154C153.825 60.8876 154.242 62.209 154.338 63.5722C154.383 66.0653 152.637 67.1273 150.443 65.9107C149.288 65.1819 148.32 64.1915 147.617 63.0196C146.915 61.8478 146.498 60.5272 146.4 59.1644Z" fill="#F2F2F2"/>
<path opacity="0.1" d="M142.461 58.7755C142.55 64.1207 150.668 79.5329 150.668 79.5329C150.668 79.5329 158.426 72.9412 158.342 67.596V66.3794C158.252 61.0342 154.627 54.7217 150.239 52.2885C145.851 49.8552 142.371 52.2087 142.461 57.5589V58.7755ZM146.4 59.1644C146.36 56.6713 148.105 55.6093 150.294 56.8259C151.451 57.5533 152.42 58.5432 153.123 59.7154C153.825 60.8876 154.242 62.209 154.338 63.5722C154.383 66.0653 152.637 67.1273 150.443 65.9107C149.288 65.1819 148.32 64.1915 147.617 63.0196C146.915 61.8478 146.498 60.5272 146.4 59.1644Z" fill="black"/>
<path d="M66.4164 130.063C71.4574 132.965 83.2747 130.856 92.8132 125.346L119.016 110.223C128.554 104.713 132.194 97.9021 127.143 95.0051C122.092 92.1082 110.265 94.2273 100.716 99.732L74.5638 114.835C65.0303 120.34 61.3804 127.176 66.4164 130.063Z" fill="#F0F0F0"/>
<path d="M142.705 3.27928H142.73L147.043 0.786199H147.078C149.795 -0.589983 153.425 -0.211031 157.334 2.33192C165.193 7.38789 171.191 19.0555 170.737 28.3847C170.508 33.0368 168.743 36.2279 166.015 37.634H165.99L161.672 40.1271H161.642C158.925 41.5083 155.29 41.1243 151.376 38.5864C143.523 33.5254 137.524 21.8627 137.978 12.5336C138.217 7.87653 140.007 4.68538 142.705 3.27928Z" fill="#37474F"/>
<path d="M161.892 39.9977L166.005 37.6043H166.035C168.738 36.1932 170.523 33.0021 170.752 28.355C170.951 24.1965 169.869 19.5743 167.915 15.2812L163.597 17.7743C165.556 22.0674 166.638 26.6896 166.434 30.8531C166.22 35.3905 164.504 38.5467 161.892 39.9977Z" fill="#263238"/>
<path d="M151.396 38.5817C143.543 33.5207 137.544 21.8581 137.998 12.529C138.452 3.19983 145.198 -0.265557 153.036 4.79042C160.874 9.8464 166.893 21.514 166.439 30.8432C165.985 40.1723 159.249 43.6377 151.396 38.5817Z" fill="#455A64"/>
<path d="M157.977 37.9236C162.61 38.1479 163.362 32.9374 163.462 30.6936C163.861 22.4664 158.346 11.7462 151.421 7.28355C149.945 6.24986 148.228 5.61441 146.434 5.43866C141.807 5.21429 141.054 10.4248 140.95 12.6686C140.551 20.8958 146.06 31.6161 152.991 36.1036C154.467 37.1373 156.184 37.7727 157.977 37.9485V37.9236Z" fill="#FAFAFA"/>
<path d="M151.311 23.2285C151.366 23.2287 151.42 23.2185 151.471 23.1986C151.575 23.1648 151.665 23.0977 151.727 23.0075C151.789 22.9174 151.82 22.8094 151.815 22.7V10.818C151.815 10.6857 151.762 10.5589 151.669 10.4654C151.575 10.3719 151.448 10.3193 151.316 10.3193C151.184 10.3193 151.057 10.3719 150.963 10.4654C150.87 10.5589 150.817 10.6857 150.817 10.818V21.254L145.268 14.1238C145.186 14.018 145.065 13.9491 144.932 13.9323C144.8 13.9154 144.666 13.952 144.56 14.034C144.454 14.116 144.385 14.2367 144.368 14.3695C144.351 14.5022 144.388 14.6363 144.47 14.7421L150.927 23.0341C150.972 23.0931 151.031 23.1412 151.097 23.1749C151.163 23.2085 151.237 23.2268 151.311 23.2285Z" fill="#37474F"/>
<path d="M154.173 32.0194C154.196 32.0239 154.22 32.0239 154.243 32.0194C154.296 32.0032 154.34 31.9671 154.367 31.9188C154.394 31.8705 154.401 31.8136 154.387 31.7601L151.59 22.3412C151.574 22.2877 151.538 22.2426 151.489 22.2159C151.44 22.1893 151.382 22.1832 151.328 22.1991C151.275 22.215 151.23 22.2515 151.203 22.3006C151.177 22.3497 151.17 22.4073 151.186 22.4609L153.979 31.8798C153.993 31.9201 154.019 31.9551 154.054 31.9801C154.089 32.0051 154.13 32.0188 154.173 32.0194Z" fill="#F2F2F2"/>
<path d="M151.471 20.3416C150.543 19.7482 149.75 20.1571 149.7 21.254C149.703 21.8524 149.848 22.4415 150.122 22.9735C150.395 23.5055 150.791 23.9654 151.276 24.3156C152.199 24.9139 152.991 24.505 153.046 23.4081C153.042 22.8093 152.897 22.2198 152.623 21.6872C152.35 21.1546 151.955 20.6937 151.471 20.3416Z" fill="#F2F2F2"/>
<path d="M70.0164 127.146L76.0896 123.636L74.0652 122.469L67.9921 125.974L70.0164 127.146Z" fill="#F2F2F2"/>
<path d="M82.1678 120.13L88.246 116.62L86.2166 115.453L80.1434 118.958L82.1678 120.13Z" fill="#F2F2F2"/>
<path d="M79.6696 118.699C79.6696 121.63 77.6153 125.181 75.0774 126.676C73.7261 127.459 72.5095 127.484 71.6718 126.896C71.3341 126.631 71.0567 126.296 70.8581 125.915C70.6595 125.535 70.5443 125.116 70.52 124.687C70.6906 124.607 70.857 124.519 71.0186 124.423C73.5566 122.962 75.6109 119.397 75.6109 116.445C75.6133 116.226 75.6 116.008 75.571 115.792C75.9514 115.59 76.3695 115.471 76.7987 115.44C77.2279 115.409 77.6588 115.467 78.0641 115.612C79.0613 116.031 79.6696 117.113 79.6696 118.699Z" fill="#263238"/>
<path d="M80.0836 112.676L79.9988 112.626C78.7224 111.948 77.0071 112.072 75.0775 113.179C71.1633 115.438 67.9871 120.933 67.9871 125.455C67.9871 127.729 68.7899 129.32 70.0863 130.058C71.3827 130.796 73.1329 130.671 75.0725 129.559C78.9866 127.3 82.1578 121.8 82.1578 117.278C82.1628 115.004 81.375 113.414 80.0836 112.676ZM75.0974 126.667C73.7412 127.45 72.5245 127.475 71.6869 126.881C70.9489 126.383 70.5002 125.386 70.5002 124.014C70.5002 121.087 72.5594 117.532 75.0974 116.036C76.2542 115.368 77.3063 115.254 78.0891 115.598C79.0564 116.012 79.6647 117.094 79.6647 118.689C79.6697 121.641 77.6154 125.206 75.0775 126.677L75.0974 126.667Z" fill="#37474F"/>
<path d="M78.3234 115.732L78.2685 115.702C77.4408 115.258 76.3189 115.343 75.0774 116.056C72.5394 117.522 70.4801 121.087 70.4801 124.034C70.4801 125.53 70.9787 126.527 71.8413 127.026C72.7039 127.524 73.8358 127.425 75.0774 126.697C77.6153 125.231 79.6696 121.666 79.6696 118.719C79.6696 117.243 79.156 116.206 78.3234 115.732ZM75.0774 125.63C73.9904 126.258 73.0131 126.278 72.335 125.799C71.7466 125.385 71.3826 124.593 71.3826 123.496C71.4525 122.214 71.8234 120.967 72.4653 119.855C73.1073 118.744 74.0021 117.799 75.0774 117.098C75.4266 116.854 75.828 116.695 76.2496 116.634C76.6711 116.572 77.1012 116.61 77.5056 116.744C78.2835 117.078 78.7721 117.946 78.7721 119.237C78.7027 120.518 78.3319 121.765 77.6898 122.876C77.0478 123.986 76.1527 124.93 75.0774 125.63Z" fill="#F2F2F2"/>
<path d="M94.3191 113.11L100.397 109.604L98.3728 108.433L92.2947 111.943L94.3191 113.11Z" fill="#F2F2F2"/>
<path d="M106.475 106.094L112.549 102.589L110.524 101.417L104.446 104.927L106.475 106.094Z" fill="#F2F2F2"/>
<path d="M118.627 99.0784L124.7 95.5731L122.675 94.4014L116.597 97.9116L118.627 99.0784Z" fill="#F2F2F2"/>
<path d="M88.3855 66.4537C88.449 66.3688 88.5379 66.3064 88.6393 66.2755C88.7407 66.2447 88.8493 66.2469 88.9493 66.2819C89.0494 66.3169 89.1356 66.3829 89.1956 66.4703C89.2556 66.5576 89.2862 66.6619 89.283 66.7678C89.322 67.0516 89.293 67.3406 89.1985 67.6111C89.1041 67.8815 88.9467 68.1257 88.7395 68.3235C88.3406 68.6675 87.9367 68.5279 87.842 68.0093C87.8034 67.7255 87.8325 67.4367 87.927 67.1663C88.0215 66.8959 88.1786 66.6517 88.3855 66.4537Z" fill="#F2F2F2"/>
<path d="M93.0625 68.6581L88.9987 66.3096L88.1062 68.4586L92.1849 70.8121L93.0625 68.6581Z" fill="#F2F2F2"/>
<path d="M92.4392 68.7922C92.8381 68.4532 93.237 68.5928 93.3367 69.1114C93.3735 69.3947 93.343 69.6828 93.2477 69.9522C93.1524 70.2216 92.995 70.4648 92.7883 70.6621C92.3894 71.0061 91.9855 70.8665 91.8907 70.3479C91.8544 70.0638 91.8851 69.7751 91.9803 69.505C92.0756 69.2348 92.2327 68.9907 92.4392 68.7922Z" fill="#F2F2F2"/>
<path d="M123.673 88.4576C123.673 88.5573 123.673 88.6471 123.673 88.7468C123.673 88.9462 123.673 89.1507 123.673 89.3551C122.865 89.0111 121.813 89.1257 120.656 89.7939C118.118 91.2598 116.059 94.8249 116.059 97.7718C116.059 99.138 116.507 100.125 117.245 100.639C117.038 100.786 116.824 100.923 116.602 101.048L116.368 101.167L115.665 103.815L111.596 101.546C110.31 100.803 109.517 99.2178 109.517 96.954C109.517 92.4316 112.688 86.9368 116.602 84.6731C118.537 83.5562 120.287 83.4415 121.588 84.1745L125.577 86.4083L125.662 86.4581L123.673 88.4576Z" fill="#455A64"/>
<path d="M125.657 86.4131L125.572 86.3633C124.296 85.6851 122.581 85.8098 120.651 86.9167C116.737 89.1755 113.561 94.6702 113.561 99.1927C113.561 101.466 114.363 103.057 115.66 103.795C116.956 104.533 118.706 104.408 120.646 103.296C124.56 101.038 127.731 95.5378 127.731 91.0154C127.746 88.7417 126.943 87.1511 125.657 86.4131ZM120.671 100.404C119.315 101.187 118.098 101.212 117.26 100.619C116.522 100.12 116.074 99.1229 116.074 97.7517C116.074 94.8248 118.133 91.2697 120.671 89.7738C121.828 89.1057 122.88 88.991 123.688 89.335C124.655 89.7489 125.263 90.8309 125.263 92.4264C125.253 95.3783 123.189 98.9434 120.651 100.404H120.671Z" fill="#37474F"/>
<path d="M125.253 92.4467C125.253 95.3785 123.199 98.9287 120.661 100.425C119.31 101.207 118.093 101.232 117.255 100.644C116.918 100.379 116.64 100.044 116.442 99.6635C116.243 99.2826 116.128 98.8639 116.104 98.435C116.274 98.3554 116.441 98.2672 116.602 98.1708C119.14 96.7098 121.195 93.1447 121.195 90.1929C121.197 89.9745 121.184 89.7562 121.155 89.5397C121.535 89.3385 121.953 89.2186 122.382 89.1877C122.811 89.1568 123.242 89.2155 123.648 89.3602C124.635 89.7791 125.253 90.8511 125.253 92.4467Z" fill="#263238"/>
<path d="M123.897 89.4699L123.842 89.435C123.014 88.9963 121.888 89.076 120.651 89.794C118.113 91.26 116.054 94.8201 116.054 97.7719C116.054 99.2678 116.552 100.265 117.415 100.764C118.278 101.262 119.409 101.158 120.651 100.43C123.189 98.9686 125.243 95.4035 125.243 92.4517C125.253 90.9808 124.755 89.9486 123.897 89.4699ZM120.651 99.3625C119.559 99.9957 118.582 100.016 117.909 99.537C117.315 99.1232 116.956 98.3304 116.956 97.2334C117.026 95.9518 117.397 94.7046 118.039 93.5932C118.681 92.4817 119.576 91.5371 120.651 90.8362C121.578 90.2976 122.426 90.2029 123.074 90.4821C123.852 90.8162 124.341 91.6838 124.341 92.9752C124.271 94.2551 123.901 95.5005 123.26 96.6104C122.619 97.7202 121.725 98.6631 120.651 99.3625Z" fill="#F2F2F2"/>
<path d="M116.597 93.9375L128.065 87.3158C129.397 86.543 125.074 82.0305 121.858 81.7263C120.087 81.5124 118.291 81.6825 116.592 82.225C116.592 82.225 119.04 85.3613 118.622 87.1413C118.203 88.9214 116.597 93.9375 116.597 93.9375Z" fill="#F2F2F2"/>
<path d="M100.397 75.2246C100.397 75.2246 117.021 83.6113 117.739 84.115C118.457 84.6186 117.739 90.4673 116.597 93.9377C115.455 97.4081 113.7 102.743 112.997 104.239C112.294 105.735 111.377 106.293 109.691 107.266L97.7246 114.182L81.5246 116.156L75.0924 112.666L76.7678 102.14C76.7678 102.14 93.985 92.9804 96.3435 91.6191C98.7019 90.2579 105.678 83.8706 100.397 75.2246Z" fill="#F2F2F2"/>
<path opacity="0.2" d="M100.397 75.2246C100.397 75.2246 117.021 83.6113 117.739 84.115C118.457 84.6186 117.739 90.4673 116.597 93.9377C115.455 97.4081 113.7 102.743 112.997 104.239C112.294 105.735 111.377 106.293 109.691 107.266L97.7246 114.182L81.5246 116.156L75.0924 112.666L76.7678 102.14C76.7678 102.14 93.985 92.9804 96.3435 91.6191C98.7019 90.2579 105.678 83.8706 100.397 75.2246Z" fill="black"/>
<path d="M118.058 91.9383C119.554 87.9194 120.671 84.5887 120.481 82.3399C120.252 79.6723 119.255 77.4933 114.857 76.3964C110.459 75.2994 104.311 75.3194 104.311 75.3194L102.441 76.4014C102.441 76.4014 115.086 83.731 116.522 84.5288C117.4 85.0274 118.337 87.2263 116.617 93.9427L116.911 94.1122C117.056 94.202 117.579 93.2297 118.058 91.9383Z" fill="#F2F2F2"/>
<path opacity="0.3" d="M118.058 91.9383C119.554 87.9194 120.671 84.5887 120.481 82.3399C120.252 79.6723 119.255 77.4933 114.857 76.3964C110.459 75.2994 104.311 75.3194 104.311 75.3194L102.441 76.4014C102.441 76.4014 115.086 83.731 116.522 84.5288C117.4 85.0274 118.337 87.2263 116.617 93.9427L116.911 94.1122C117.056 94.202 117.579 93.2297 118.058 91.9383Z" fill="white"/>
<path d="M108.48 79.9017L110.524 78.735C110.524 78.735 110.404 71.6496 107.423 69.9294C104.441 68.2091 94.3191 69.3809 94.3191 69.3809L92.2947 70.5477L108.48 79.9017Z" fill="#F2F2F2"/>
<path d="M101.848 71.5495C100.876 72.113 100.876 73.0204 101.848 73.5789C102.393 73.8565 102.997 74.0012 103.608 74.0012C104.22 74.0012 104.823 73.8565 105.368 73.5789C106.336 73.0204 106.336 72.108 105.368 71.5495C104.823 71.2743 104.22 71.1309 103.608 71.1309C102.997 71.1309 102.394 71.2743 101.848 71.5495Z" fill="#F0F0F0"/>
<path d="M104.96 74.9353C104.276 75.3342 104.276 75.9774 104.96 76.3713C105.345 76.5687 105.773 76.6716 106.206 76.6716C106.64 76.6716 107.067 76.5687 107.453 76.3713C108.141 75.9774 108.141 75.3342 107.453 74.9353C107.066 74.7403 106.639 74.6387 106.206 74.6387C105.773 74.6387 105.346 74.7403 104.96 74.9353Z" fill="#F0F0F0"/>
<path d="M97.1262 70.647C96.4381 71.0409 96.4381 71.6841 97.1262 72.083C97.5128 72.278 97.9398 72.3796 98.3728 72.3796C98.8058 72.3796 99.2327 72.278 99.6193 72.083C100.307 71.6841 100.307 71.0409 99.6193 70.647C99.2334 70.4496 98.8062 70.3467 98.3728 70.3467C97.9394 70.3467 97.5121 70.4496 97.1262 70.647Z" fill="#F0F0F0"/>
<path d="M108.799 77.8477C109.198 77.5037 109.597 77.6433 109.696 78.1619C109.733 78.446 109.703 78.7348 109.607 79.005C109.512 79.2752 109.355 79.5193 109.148 79.7176C109.084 79.8024 108.995 79.8648 108.894 79.8957C108.793 79.9266 108.684 79.9243 108.584 79.8893C108.484 79.8543 108.398 79.7883 108.338 79.701C108.278 79.6136 108.247 79.5094 108.25 79.4034C108.212 79.1192 108.242 78.8299 108.337 78.5595C108.432 78.289 108.591 78.045 108.799 77.8477Z" fill="#F2F2F2"/>
<path d="M113.451 80.0506L109.382 77.7021L108.495 79.8512L112.568 82.1997L113.451 80.0506Z" fill="#F2F2F2"/>
<path d="M112.823 80.1861C112.886 80.1012 112.975 80.0389 113.077 80.008C113.178 79.9771 113.287 79.9793 113.387 80.0143C113.487 80.0493 113.573 80.1153 113.633 80.2027C113.693 80.2901 113.723 80.3943 113.72 80.5002C113.758 80.7844 113.728 81.0736 113.633 81.344C113.538 81.6144 113.38 81.8583 113.172 82.0559C112.773 82.3999 112.374 82.2554 112.274 81.7418C112.237 81.4576 112.267 81.1687 112.363 80.8984C112.458 80.6282 112.616 80.3841 112.823 80.1861Z" fill="#F2F2F2"/>
<path d="M112.823 80.1861C112.886 80.1012 112.975 80.0389 113.077 80.008C113.178 79.9771 113.287 79.9793 113.387 80.0143C113.487 80.0493 113.573 80.1153 113.633 80.2027C113.693 80.2901 113.723 80.3943 113.72 80.5002C113.758 80.7844 113.728 81.0736 113.633 81.344C113.538 81.6144 113.38 81.8583 113.172 82.0559C112.773 82.3999 112.374 82.2554 112.274 81.7418C112.237 81.4576 112.267 81.1687 112.363 80.8984C112.458 80.6282 112.616 80.3841 112.823 80.1861Z" fill="black"/>
<path d="M78.0989 114.71C78.0989 114.809 78.0989 114.899 78.0989 114.999C78.0989 115.198 78.0989 115.403 78.0989 115.607C77.2912 115.263 76.2391 115.378 75.1072 116.046C72.5693 117.512 70.51 121.077 70.51 124.024C70.51 125.39 70.9587 126.377 71.6967 126.891C71.4895 127.038 71.2748 127.175 71.0535 127.3L70.8191 127.419L70.1161 130.067L66.0474 127.798C64.7609 127.055 63.9681 125.47 63.9681 123.206C63.9681 118.684 67.1393 113.189 71.0535 110.925C72.9881 109.808 74.7383 109.693 76.0397 110.426L80.0286 112.66L80.1134 112.71L78.0989 114.71Z" fill="#455A64"/>
<path d="M65.9627 106.797L62.9261 117.323L69.0042 120.833L72.1505 110.372L65.9627 106.797Z" fill="#F2F2F2"/>
<path opacity="0.2" d="M65.9627 106.797L62.9261 117.323L69.0042 120.833L72.1505 110.372L65.9627 106.797Z" fill="black"/>
<path d="M65.9626 106.797C65.9626 106.797 69.4081 109.724 72.1505 110.372C75.7505 111.244 81.4746 111.339 83.504 111.479C86.6054 111.693 88.9489 111.688 90.0458 111.294C91.4669 110.796 95.2863 108.577 96.3434 107.969C98.3678 106.802 99.2304 102.21 93.6508 100.953C89.8782 100.171 86.0354 99.7787 82.1827 99.7813L65.9626 106.797Z" fill="#F2F2F2"/>
<path d="M100.322 105.45C100.149 105.884 100.032 106.338 99.9733 106.802C99.8127 107.283 99.775 107.797 99.8636 108.297C100.244 108.926 100.842 109.393 101.544 109.609C102.05 109.721 102.573 109.728 103.082 109.63C103.591 109.531 104.074 109.329 104.501 109.035C105.533 108.417 106.311 107.669 107.777 107.25C108.825 107.028 109.811 106.581 110.669 105.939C111.481 105.286 112.568 103.481 111.013 103.062C109.457 102.643 106.076 104.119 102.995 104.254L100.322 105.45Z" fill="#37474F"/>
<path d="M100.322 103.526V105.83C100.417 106.089 100.581 106.317 100.796 106.488C101.012 106.66 101.271 106.768 101.544 106.802C101.794 106.839 102.05 106.812 102.287 106.723C102.66 106.58 102.984 106.331 103.218 106.007C103.452 105.683 103.586 105.297 103.603 104.898L103.693 103.526H100.322Z" fill="#FFA8A7"/>
<path d="M104.71 89.2803C104.71 92.1473 103.902 104.543 103.902 104.543C103.902 104.543 102.731 106.039 100.183 104.543L99.3252 90.6914L104.71 89.2803Z" fill="#37474F"/>
<path d="M91.3472 101.497L99.3251 96.8994C99.652 96.7278 99.9258 96.4701 100.117 96.1542C100.308 95.8382 100.409 95.4761 100.409 95.1069C100.409 94.7377 100.308 94.3755 100.117 94.0596C99.9258 93.7436 99.652 93.4859 99.3251 93.3143L93.3816 89.8839C93.047 89.7143 92.6772 89.626 92.3021 89.626C91.927 89.626 91.5572 89.7143 91.2226 89.8839L83.2447 94.4811C82.9192 94.6539 82.6469 94.912 82.457 95.2278C82.2671 95.5436 82.1667 95.9051 82.1667 96.2736C82.1667 96.6421 82.2671 97.0037 82.457 97.3195C82.6469 97.6353 82.9192 97.8934 83.2447 98.0662L89.1882 101.497C89.5228 101.666 89.8926 101.755 90.2677 101.755C90.6428 101.755 91.0126 101.666 91.3472 101.497Z" fill="#F2F2F2"/>
<path d="M91.3472 101.497L99.3251 96.8994C99.652 96.7278 99.9258 96.4701 100.117 96.1542C100.308 95.8382 100.409 95.4761 100.409 95.1069C100.409 94.7377 100.308 94.3755 100.117 94.0596C99.9258 93.7436 99.652 93.4859 99.3251 93.3143L93.3816 89.8839C93.047 89.7143 92.6772 89.626 92.3021 89.626C91.927 89.626 91.5572 89.7143 91.2226 89.8839L83.2447 94.4811C82.9192 94.6539 82.6469 94.912 82.457 95.2278C82.2671 95.5436 82.1667 95.9051 82.1667 96.2736C82.1667 96.6421 82.2671 97.0037 82.457 97.3195C82.6469 97.6353 82.9192 97.8934 83.2447 98.0662L89.1882 101.497C89.5228 101.666 89.8926 101.755 90.2677 101.755C90.6428 101.755 91.0126 101.666 91.3472 101.497Z" fill="white"/>
<path d="M83.2448 95.7276L89.1883 99.1581C89.5229 99.3277 89.8927 99.416 90.2678 99.416C90.6429 99.416 91.0127 99.3277 91.3473 99.1581L99.3252 94.5609C99.4554 94.5167 99.5685 94.4328 99.6487 94.321C99.7288 94.2092 99.7719 94.0751 99.7719 93.9376C99.7719 93.8001 99.7288 93.666 99.6487 93.5542C99.5685 93.4424 99.4554 93.3585 99.3252 93.3143L93.3817 89.8839C93.0471 89.7143 92.6773 89.626 92.3022 89.626C91.9271 89.626 91.5573 89.7143 91.2227 89.8839L83.2448 94.4811C83.1145 94.5253 83.0014 94.6092 82.9213 94.721C82.8412 94.8328 82.7981 94.9668 82.7981 95.1044C82.7981 95.2419 82.8412 95.376 82.9213 95.4878C83.0014 95.5996 83.1145 95.6835 83.2448 95.7276Z" fill="#F2F2F2"/>
<path d="M88.1062 65.2125L87.094 69.3859L82.7461 69.6502L83.6835 63.8662L88.1062 65.2125Z" fill="#FFA8A7"/>
<path d="M92.3445 62.0713C92.3445 62.0713 92.8431 63.8364 92.6387 63.9361C92.3247 63.984 92.0053 63.984 91.6913 63.9361L92.3445 62.0713Z" fill="#F28F8F"/>
<path d="M91.5118 56.4361C92.2099 57.2589 92.8481 58.6101 92.3545 61.9209C91.816 65.5409 91.1478 65.9597 90.6093 66.3088C89.9063 66.7675 87.0941 66.5232 86.3013 65.9448C85.3489 65.2517 83.878 63.0528 83.529 60.8838C83.1201 58.3359 83.9727 55.5087 85.8475 55.0251C88.4852 54.342 90.9185 55.7381 91.5118 56.4361Z" fill="#FFA8A7"/>
<path d="M83.2448 65.0377C83.9179 65.7358 85.2991 65.9253 86.1667 66.0848C87.0343 66.2444 89.7019 66.4189 90.4897 64.5192C91.2775 62.6195 90.739 61.2532 91.7063 60.7945C92.6736 60.3358 93.6409 60.0366 93.8952 59.7973C94.1495 59.5579 94.1545 56.4316 91.5567 54.8111C88.9589 53.1906 84.98 52.8166 82.3622 56.1025C80.3777 58.6405 81.1905 62.8937 83.2448 65.0377Z" fill="#455A64"/>
<path d="M85.8625 66.1097C86.5356 66.1695 88.6647 65.8354 89.3079 64.9579C89.9511 64.0803 90.2104 62.5097 90.3052 61.6869C90.3139 61.3629 90.4327 61.0515 90.6421 60.8041C90.8514 60.5567 91.1389 60.3879 91.457 60.3257C92.1002 60.1213 93.5212 59.4232 93.5212 59.4232V59.0343C93.9795 59.0055 94.4391 59.0055 94.8974 59.0343C95.1966 59.0891 95.0321 59.5329 94.2742 59.9169C93.5163 60.3008 91.437 61.0437 91.1179 61.298C90.7988 61.5523 90.6492 62.6243 90.3949 63.7662C90.1406 64.908 89.3528 66.6133 85.8625 66.1097Z" fill="#37474F"/>
<path d="M91.8459 70.8321L94.339 69.4011C94.5783 68.6781 94.1944 68.3141 93.5163 68.3589C92.8382 68.4038 93.0476 67.7457 92.6337 67.5612C92.0902 67.3119 91.7811 67.4515 91.5368 67.3368C91.2925 67.2221 91.1877 66.9329 90.8686 66.898C89.4426 66.7634 88.4703 68.7977 88.4703 68.7977L91.8459 70.8321Z" fill="#F28F8F"/>
<path d="M74.9228 89.1412C74.9228 89.1412 85.9372 83.6813 87.8569 82.7988C89.7766 81.9162 92.7882 80.6348 94.3888 80.6348C95.0143 80.6864 95.6001 80.962 96.0388 81.4108C96.4776 81.8595 96.7397 82.4515 96.7772 83.078C96.7979 84.0398 96.7429 85.0018 96.6126 85.955C93.5864 86.9478 90.494 87.7259 87.3583 88.2835C82.776 89.0813 74.9228 89.1412 74.9228 89.1412Z" fill="#37474F"/>
<path d="M76.1195 85.9846C76.1195 88.2483 75.9051 90.6018 76.8475 92.2572C77.7898 93.9126 82.8957 97.742 87.7023 96.9392C90.8436 96.4107 100.168 92.1176 100.168 92.1176C100.168 92.1176 104.69 90.4572 104.71 89.2755C104.74 87.5353 104.62 85.0821 100.676 85.1868C97.0813 85.2816 86.4757 87.4954 86.4757 87.4954L76.1195 85.9846Z" fill="#455A64"/>
<path d="M79.196 68.0498C80.9012 66.2697 82.053 66.1201 82.8708 66.3395C84.7501 66.8774 86.5695 67.6058 88.3007 68.5135C88.3007 68.5135 87.6425 74.8858 90.7589 76.7207V86.6532C90.7589 86.6532 90.6641 87.7302 89.3079 88.8022C88.1112 89.7446 85.4037 90.697 82.1727 90.4277C78.3334 90.1086 76.1195 85.985 76.1195 85.985C76.1195 85.985 76.0198 77.8626 76.5633 74.6365C77.2015 70.872 78.6076 68.6681 79.196 68.0498Z" fill="#455A64"/>
<path d="M90.759 77.2041C90.759 77.2041 88.8742 75.7083 88.3008 73.7637C88.3008 73.7637 88.5252 76.8152 90.759 78.3609V77.2041Z" fill="#37474F"/>
<path d="M108.205 81.8906C109.101 81.9274 109.981 81.6545 110.699 81.1177C110.699 81.1177 111.566 79.4324 112.633 79.577C112.633 79.577 112.823 78.859 112.384 78.6246C111.945 78.3903 111.756 78.4551 111.576 78.2058C111.397 77.9565 111.377 77.4928 110.579 77.4928C110.25 77.4928 110.295 77.2584 109.497 77.1637C108.699 77.069 107.911 78.9089 107.328 78.9089L108.205 81.8906Z" fill="#FFA8A7"/>
<path d="M88.3007 68.5127C91.0381 68.9365 92.0303 69.7493 93.0276 70.6717C94.0248 71.5941 100.128 77.7172 100.128 77.7172L107.517 78.7792C107.906 79.0936 108.191 79.5175 108.335 79.9958C108.634 80.8634 108.365 81.8108 108.081 82.0352C108.081 82.0352 100.751 82.474 99.3101 82.1997C97.8691 81.9255 90.7339 77.1886 90.7339 77.1886C90.052 76.6743 89.48 76.0286 89.0518 75.2895C88.6236 74.5504 88.3478 73.733 88.2408 72.8856C87.7771 69.8789 88.3007 68.5127 88.3007 68.5127Z" fill="#455A64"/>
<path d="M81.7289 94.8499L70.4053 108.672C70.2796 108.687 70.1531 108.696 70.0264 108.696C69.5773 108.704 69.1336 108.599 68.7349 108.392L59.1715 102.868L58.5233 102.494C58.1692 102.289 57.8751 101.452 57.8751 100.624V98.2953C57.8747 95.9034 58.5039 93.5535 59.6995 91.4817C60.8951 89.41 62.6149 87.6895 64.6862 86.4931L76.1045 79.9014L88.2558 86.9169L81.7289 94.8499Z" fill="#F2F2F2"/>
<g opacity="0.1">
<path d="M81.7289 94.8499L70.4053 108.672C70.2796 108.687 70.1531 108.696 70.0264 108.696C69.5773 108.704 69.1336 108.599 68.7349 108.392L59.1715 102.868L58.5233 102.494C58.1692 102.289 57.8751 101.452 57.8751 100.624V98.2953C57.8747 95.9034 58.5039 93.5535 59.6995 91.4817C60.8951 89.41 62.6149 87.6895 64.6862 86.4931L76.1045 79.9014L88.2558 86.9169L81.7289 94.8499Z" fill="black"/>
</g>
<path d="M77.8248 99.6166L88.2409 86.9218L76.0896 79.9062L64.6763 86.493C63.1999 87.3477 61.8974 88.4725 60.8369 89.8088L77.8248 99.6166Z" fill="#F2F2F2"/>
<path d="M88.2409 97.1137C88.2409 97.9414 87.9517 98.7791 87.5927 98.9835L86.9445 99.3575L71.3079 108.387C71.0234 108.541 70.7118 108.637 70.3904 108.672C70.2647 108.688 70.1382 108.696 70.0115 108.697V105.311C70.0111 102.918 70.6408 100.568 71.8374 98.4961C73.0339 96.4243 74.7551 94.7041 76.8276 93.5087L78.119 92.7658L88.2409 86.917V97.1137Z" fill="#F2F2F2"/>
<g opacity="0.2">
<path d="M88.2409 97.1137C88.2409 97.9414 87.9517 98.7791 87.5927 98.9835L86.9445 99.3575L71.3079 108.387C71.0234 108.541 70.7118 108.637 70.3904 108.672C70.2647 108.688 70.1382 108.696 70.0115 108.697V105.311C70.0111 102.918 70.6408 100.568 71.8374 98.4961C73.0339 96.4243 74.7551 94.7041 76.8276 93.5087L78.119 92.7658L88.2409 86.917V97.1137Z" fill="black"/>
</g>
<path d="M91.5966 114.217L97.7146 114.197L106.47 109.141L97.8941 115.338L91.437 115.428L91.5966 114.217Z" fill="#E0E0E0"/>
<path d="M76.7428 122.922C76.7428 122.922 87.7722 118.763 88.7096 118.275C89.8098 117.601 90.8536 116.838 91.8309 115.996C92.0304 115.732 92.1241 115.403 92.0936 115.074C92.0632 114.745 91.9108 114.439 91.6664 114.216C91.6664 114.216 87.1789 114.012 86.027 114.366C85.3838 114.56 75.0026 117.891 75.0026 117.891L76.7428 122.922Z" fill="#E0E0E0"/>
<path d="M76.2492 118.275C75.3367 117.492 74.4192 117.816 74.1949 118.993C74.1092 119.642 74.1778 120.302 74.3953 120.92C74.6128 121.538 74.9729 122.096 75.4464 122.548C76.3589 123.331 77.2763 123.012 77.5007 121.83C77.586 121.181 77.5171 120.521 77.2997 119.903C77.0822 119.285 76.7223 118.727 76.2492 118.275Z" fill="#455A64"/>
</svg>
