<svg width="19" height="18" viewBox="0 0 19 18" fill="none" xmlns="http://www.w3.org/2000/svg">
<path d="M9.50988 2.2263L9.16952 1.90681L9.13549 1.87487C8.55256 1.331 7.86294 0.933415 7.11818 0.709491C6.37352 0.4856 5.59123 0.440546 4.82839 0.577332L9.50988 2.2263ZM9.50988 2.2263L9.85195 1.90865M9.50988 2.2263L9.85195 1.90865M9.85195 1.90865L9.88325 1.87958C9.8834 1.87944 9.88356 1.8793 9.88371 1.87915C10.4399 1.36556 11.0921 0.984162 11.7962 0.758729C12.499 0.533672 13.2387 0.468805 13.9664 0.568012L14.189 0.602297C15.1056 0.770121 15.9651 1.19556 16.676 1.837C17.3888 2.48013 17.9256 3.31666 18.2268 4.25958C18.528 5.20259 18.5814 6.21458 18.3809 7.18757C18.1808 8.15883 17.7358 9.05249 17.0957 9.77516L16.9439 9.93927L16.9155 9.9648L16.9018 9.97716M9.85195 1.90865L16.9018 9.97716M16.9018 9.97716L16.889 9.9905M16.9018 9.97716L16.889 9.9905M16.889 9.9905L9.81479 17.3647C9.73546 17.4473 9.63508 17.4925 9.53389 17.4991C9.43674 17.5055 9.33756 17.4765 9.25324 17.4121L9.18925 17.3533L2.08508 9.94754L2.0851 9.94753M16.889 9.9905L2.0851 9.94753M2.0851 9.94753L2.08198 9.94433M2.0851 9.94753L2.08198 9.94433M2.08198 9.94433C1.39259 9.23839 0.899877 8.34276 0.661499 7.35539M2.08198 9.94433L0.661499 7.35539M0.661499 7.35539C0.423102 6.36795 0.449103 5.33005 0.736412 4.35752M0.661499 7.35539L0.736412 4.35752M0.736412 4.35752C1.02369 3.38509 1.56019 2.51855 2.28332 1.85228M0.736412 4.35752L2.28332 1.85228M2.28332 1.85228C3.00622 1.18622 3.8874 0.746143 4.82836 0.577338L2.28332 1.85228Z" fill="white" stroke="#20236C"/>
</svg>
