<svg width="18" height="18" viewBox="0 0 18 18" fill="none" xmlns="http://www.w3.org/2000/svg">
<g clip-path="url(#clip0_254_9643)">
<path d="M9.39 0.144039C9.28132 0.0510818 9.14301 0 9 0C8.85699 0 8.71868 0.0510818 8.61 0.144039L0 7.52404V16.2C0 16.6774 0.189642 17.1353 0.527208 17.4728C0.864773 17.8104 1.32261 18 1.8 18H6.6C6.75913 18 6.91174 17.9368 7.02426 17.8243C7.13678 17.7118 7.2 17.5592 7.2 17.4V13.8C7.2 13.3226 7.38964 12.8648 7.72721 12.5272C8.06477 12.1897 8.52261 12 9 12C9.47739 12 9.93523 12.1897 10.2728 12.5272C10.6104 12.8648 10.8 13.3226 10.8 13.8V17.4C10.8 17.5592 10.8632 17.7118 10.9757 17.8243C11.0883 17.9368 11.2409 18 11.4 18H16.2C16.6774 18 17.1352 17.8104 17.4728 17.4728C17.8104 17.1353 18 16.6774 18 16.2V7.52404L9.39 0.144039Z" fill="#15245B"/>
</g>
<defs>
<clipPath id="clip0_254_9643">
<rect width="17.093" height="17.093" fill="white" transform="scale(1.05306)"/>
</clipPath>
</defs>
</svg>
