<svg width="18" height="17" viewBox="0 0 18 17" fill="none" xmlns="http://www.w3.org/2000/svg">
<path d="M15.75 2.31489H4.81641L4.71094 1.88085C4.59375 1.32624 4.33008 0.874113 3.91992 0.524468C3.50977 0.174823 3.02344 0 2.46094 0H0.738281C0.527344 0 0.351562 0.0723404 0.210938 0.217021C0.0703125 0.361702 0 0.55461 0 0.795745C0 1.01277 0.0703125 1.19362 0.210938 1.3383C0.351562 1.48298 0.527344 1.55532 0.738281 1.55532H2.46094C2.90625 1.55532 3.16406 1.76028 3.23438 2.17021L4.95703 11.4298C5.09766 11.9362 5.37305 12.3461 5.7832 12.6596C6.19336 12.9731 6.64453 13.1298 7.13672 13.1298H14.2383C14.4727 13.1298 14.6602 13.0574 14.8008 12.9128C14.9414 12.7681 15.0117 12.5872 15.0117 12.3702C15.0117 11.8397 14.7539 11.5745 14.2383 11.5745H7.13672C6.80859 11.5745 6.57422 11.4298 6.43359 11.1404L6.36328 10.8149H13.8867C14.3555 10.8149 14.7832 10.6702 15.1699 10.3809C15.5566 10.0915 15.8203 9.71773 15.9609 9.25957L18 4.81064V4.62979C18 3.97872 17.7832 3.43014 17.3496 2.98404C16.916 2.53794 16.3828 2.31489 15.75 2.31489ZM6.75 9.25957H6.08203L5.09766 3.87021H6.75V9.25957ZM9.73828 9.25957H8.26172V3.87021H9.73828V9.25957ZM12.7617 9.25957H11.25V3.87021H12.7617V9.25957ZM14.625 8.64468V8.71702C14.5547 8.95816 14.4258 9.11489 14.2383 9.18723V3.87021H15.75C16.1719 3.87021 16.418 4.07518 16.4883 4.48511L14.625 8.64468ZM9 15.4447C9 15.8787 8.85352 16.2465 8.56055 16.5479C8.26758 16.8493 7.91016 17 7.48828 17C7.08984 17 6.74414 16.8493 6.45117 16.5479C6.1582 16.2465 6.01172 15.8787 6.01172 15.4447C6.01172 15.0106 6.1582 14.6429 6.45117 14.3415C6.74414 14.0401 7.08984 13.8894 7.48828 13.8894C7.91016 13.8894 8.26758 14.0401 8.56055 14.3415C8.85352 14.6429 9 15.0106 9 15.4447ZM15.0117 15.4447C15.0117 15.8787 14.8652 16.2465 14.5723 16.5479C14.2793 16.8493 13.9219 17 13.5 17C13.0781 17 12.7207 16.8493 12.4277 16.5479C12.1348 16.2465 11.9883 15.8787 11.9883 15.4447C11.9883 15.0106 12.1348 14.6429 12.4277 14.3415C12.7207 14.0401 13.0781 13.8894 13.5 13.8894C13.9219 13.8894 14.2793 14.0401 14.5723 14.3415C14.8652 14.6429 15.0117 15.0106 15.0117 15.4447Z" fill="#15245B"/>
</svg>
