<svg width="16" height="16" viewBox="0 0 16 16" fill="none" xmlns="http://www.w3.org/2000/svg">
<path d="M11.9069 6.6954C11.9069 7.09014 11.7501 7.46872 11.471 7.74784C11.1919 8.02696 10.8133 8.18378 10.4185 8.18378C10.0238 8.18378 9.64523 8.02696 9.36611 7.74784C9.08699 7.46872 8.93018 7.09014 8.93018 6.6954C8.93018 6.30066 9.08699 5.92209 9.36611 5.64297C9.64523 5.36384 10.0238 5.20703 10.4185 5.20703C10.8133 5.20703 11.1919 5.36384 11.471 5.64297C11.7501 5.92209 11.9069 6.30066 11.9069 6.6954Z" fill="#15245B"/>
<path fill-rule="evenodd" clip-rule="evenodd" d="M7.95758 0H8.04242C9.76074 0 11.107 4.43569e-08 12.1578 0.141395C13.2324 0.285767 14.0807 0.587907 14.7468 1.25321C15.4128 1.91926 15.7142 2.76763 15.8586 3.84298C16 4.89302 16 6.23926 16 7.95758V8.02307C16 9.44372 16 10.6061 15.9226 11.5527C15.8452 12.5053 15.6867 13.2993 15.331 13.9602C15.1747 14.2512 14.9812 14.5124 14.7468 14.7468C14.0807 15.4128 13.2324 15.7142 12.157 15.8586C11.107 16 9.76074 16 8.04242 16H7.95758C6.23926 16 4.89302 16 3.84223 15.8586C2.76763 15.7142 1.91926 15.4121 1.25321 14.7468C0.66307 14.1567 0.357954 13.4221 0.196465 12.5098C0.0364652 11.6145 0.00744184 10.5005 0.00148835 9.11777C-1.92329e-08 8.76577 0 8.39367 0 8.00074V7.95758C0 6.23926 4.43569e-08 4.89302 0.141395 3.84223C0.285767 2.76763 0.587907 1.91926 1.25321 1.25321C1.91926 0.587163 2.76763 0.285767 3.84298 0.141395C4.89302 4.43569e-08 6.23926 0 7.95758 0ZM3.99107 1.24726C3.04 1.37526 2.46623 1.61935 2.04279 2.04279C1.6186 2.46698 1.37526 3.04 1.24726 3.99181C1.11777 4.95926 1.11628 6.23033 1.11628 8V8.62809L1.86121 7.97544C2.18805 7.68951 2.61136 7.53851 3.04538 7.55301C3.4794 7.56752 3.89168 7.74646 4.1987 8.05358L7.39126 11.2461C7.639 11.4938 7.96618 11.6462 8.3152 11.6764C8.66422 11.7066 9.01272 11.6128 9.29935 11.4113L9.52112 11.2551C9.93465 10.9645 10.4345 10.8228 10.939 10.8532C11.4435 10.8837 11.9228 11.0844 12.2984 11.4225L14.4045 13.318C14.6173 12.8729 14.7431 12.288 14.81 11.4627C14.883 10.566 14.8837 9.44819 14.8837 8C14.8837 6.23033 14.8822 4.95926 14.7527 3.99181C14.6247 3.04 14.3807 2.46623 13.9572 2.04205C13.533 1.6186 12.96 1.37526 12.0082 1.24726C11.0407 1.11777 9.76967 1.11628 8 1.11628C6.23033 1.11628 4.95851 1.11777 3.99107 1.24726Z" fill="#15245B"/>
</svg>
