<svg width="20" height="20" viewBox="0 0 20 20" fill="none" xmlns="http://www.w3.org/2000/svg">
<path fill-rule="evenodd" clip-rule="evenodd" d="M6.41277 11.1589C5.87547 11.1589 5.43896 10.7224 5.43896 10.1851C5.43896 9.6494 5.87547 9.21289 6.41277 9.21289C6.95008 9.21289 7.38658 9.6494 7.38658 10.1851C7.38658 10.7224 6.95008 11.1589 6.41277 11.1589ZM10.1985 11.1589C9.66119 11.1589 9.22468 10.7224 9.22468 10.1851C9.22468 9.6494 9.66119 9.21289 10.1985 9.21289C10.7358 9.21289 11.1723 9.6494 11.1723 10.1851C11.1723 10.7224 10.7358 11.1589 10.1985 11.1589ZM13.0105 10.1851C13.0105 10.7224 13.447 11.1589 13.9843 11.1589C14.5216 11.1589 14.9581 10.7224 14.9581 10.1851C14.9581 9.6494 14.5216 9.21289 13.9843 9.21289C13.447 9.21289 13.0105 9.6494 13.0105 10.1851Z" fill="#15245B"/>
<path fill-rule="evenodd" clip-rule="evenodd" d="M10.0167 1.66699C5.17508 1.66699 1.66675 5.62209 1.66675 10.0128C1.66675 11.4149 2.07508 12.8579 2.79175 14.1766C2.92508 14.3944 2.94175 14.669 2.85008 14.9286L2.29175 16.798C2.16675 17.2487 2.55008 17.5817 2.97508 17.4482L4.65841 16.9482C5.11675 16.798 5.47508 16.9891 5.90008 17.2487C7.11675 17.9656 8.63342 18.3337 10.0001 18.3337C14.1334 18.3337 18.3334 15.1372 18.3334 9.98781C18.3334 5.54698 14.7501 1.66699 10.0167 1.66699Z" stroke="#15245B" stroke-width="1.5" stroke-linecap="round" stroke-linejoin="round"/>
</svg>
