<svg width="18" height="16" viewBox="0 0 18 16" fill="none" xmlns="http://www.w3.org/2000/svg">
<path d="M11.7 8.91271e-08C12.1541 -0.000141848 12.5915 0.16925 12.9245 0.47422C13.2575 0.779189 13.4614 1.1972 13.4955 1.64444L13.5 1.77778C13.5 1.9955 13.581 2.20563 13.7274 2.36833C13.8739 2.53103 14.0758 2.63497 14.2947 2.66044L14.4 2.66667H15.3C15.9887 2.66663 16.6514 2.92651 17.1524 3.39314C17.6535 3.85977 17.9551 4.49787 17.9955 5.17689L18 5.33333V13.3333C18 14.0135 17.7369 14.668 17.2644 15.1629C16.792 15.6578 16.1459 15.9557 15.4584 15.9956L15.3 16H2.7C2.01131 16 1.34864 15.7402 0.847565 15.2735C0.346494 14.8069 0.0449032 14.1688 0.00450011 13.4898L4.1944e-09 13.3333V5.33333C-3.83596e-05 4.65315 0.263093 3.99865 0.735555 3.50377C1.20802 3.00888 1.8541 2.71102 2.5416 2.67111L2.7 2.66667H3.6C3.83869 2.66667 4.06761 2.57302 4.2364 2.40632C4.40518 2.23962 4.5 2.01353 4.5 1.77778C4.49986 1.32927 4.67137 0.897274 4.98015 0.568402C5.28893 0.23953 5.71216 0.038083 6.165 0.00444464L6.3 8.91271e-08H11.7ZM9 6.22222C8.33093 6.22217 7.68568 6.46747 7.18932 6.91057C6.69296 7.35366 6.38085 7.963 6.3135 8.62044L6.3036 8.75556L6.3 8.88889L6.3036 9.02222C6.33001 9.54332 6.51062 10.0453 6.82305 10.466C7.13549 10.8867 7.56602 11.2077 8.06132 11.3891C8.55662 11.5706 9.09492 11.6045 9.60956 11.4868C10.1242 11.369 10.5926 11.1047 10.9566 10.7267C11.3207 10.3486 11.5645 9.87339 11.6578 9.35985C11.7511 8.8463 11.6898 8.31701 11.4815 7.83752C11.2732 7.35804 10.9271 6.94943 10.486 6.66231C10.0449 6.37519 9.52827 6.22218 9 6.22222Z" fill="#15245B"/>
</svg>
