<svg width="20" height="17" viewBox="0 0 20 17" fill="none" xmlns="http://www.w3.org/2000/svg">
<path d="M1.40266 16.9149L18.8858 9.42067C19.0665 9.34368 19.2206 9.21526 19.329 9.05137C19.4373 8.88749 19.495 8.69537 19.495 8.49893C19.495 8.30248 19.4373 8.11036 19.329 7.94648C19.2206 7.78259 19.0665 7.65417 18.8858 7.57718L1.40266 0.0829706C1.25127 0.0169399 1.08583 -0.0103635 0.921255 0.00352313C0.75668 0.0174097 0.598151 0.0720494 0.45997 0.162513C0.321789 0.252977 0.208303 0.376419 0.129751 0.521702C0.051198 0.666986 0.0100501 0.829539 0.010019 0.994699L0 5.61345C0 6.1144 0.370703 6.54522 0.871652 6.60533L15.0285 8.49893L0.871652 10.3825C0.370703 10.4526 0 10.8834 0 11.3844L0.010019 16.0032C0.010019 16.7145 0.741406 17.2054 1.40266 16.9149Z" fill="#15245B"/>
</svg>
