<svg width="20" height="20" viewBox="0 0 20 20" fill="none" xmlns="http://www.w3.org/2000/svg">
<path d="M18.9525 17.8157V8.15276C18.9525 7.97628 18.912 7.80222 18.8343 7.64436C18.7567 7.48651 18.6438 7.3492 18.5049 7.24331L10.6715 1.27504C10.4778 1.12746 10.2422 1.04768 10.0001 1.04768C9.75795 1.04768 9.52235 1.12746 9.32865 1.27504L1.4953 7.24331C1.35632 7.3492 1.24351 7.48651 1.16582 7.64436C1.08813 7.80222 1.04768 7.97628 1.04768 8.15276V17.8157C1.04768 18.1172 1.16558 18.4063 1.37544 18.6195C1.5853 18.8327 1.86994 18.9525 2.16673 18.9525H6.64293C6.93972 18.9525 7.22436 18.8327 7.43422 18.6195C7.64408 18.4063 7.76198 18.1172 7.76198 17.8157V14.4052C7.76198 14.1037 7.87988 13.8146 8.08974 13.6014C8.29961 13.3882 8.58424 13.2684 8.88103 13.2684H11.1191C11.4159 13.2684 11.7006 13.3882 11.9104 13.6014C12.1203 13.8146 12.2382 14.1037 12.2382 14.4052V17.8157C12.2382 18.1172 12.3561 18.4063 12.5659 18.6195C12.7758 18.8327 13.0604 18.9525 13.3572 18.9525H17.8334C18.1302 18.9525 18.4149 18.8327 18.6247 18.6195C18.8346 18.4063 18.9525 18.1172 18.9525 17.8157Z" stroke="#15245B" stroke-width="2" stroke-linecap="round" stroke-linejoin="round"/>
</svg>
