<svg width="12" height="17" viewBox="0 0 12 17" fill="none" xmlns="http://www.w3.org/2000/svg">
<path d="M6 11.2189C7.6545 11.2189 9 9.78339 9 8.01827V3.21739C9 1.44346 7.66125 0 6.01575 0C5.96296 0.000338385 5.91038 0.00704895 5.859 0.0200036C5.08894 0.0598352 4.36269 0.413959 3.83053 1.00911C3.29837 1.60425 3.00102 2.39487 3 3.21739V8.01827C3 9.78339 4.3455 11.2189 6 11.2189Z" fill="#15245B"/>
<path d="M5.25 14.3645V16.02H6.75V14.3645C9.70425 13.9684 12 11.2776 12 8.01855H10.5C10.5 10.6662 8.48175 12.8194 6 12.8194C3.51825 12.8194 1.5 10.6662 1.5 8.01855H0C0 11.2768 2.29575 13.9684 5.25 14.3645Z" fill="#15245B"/>
</svg>
