<svg width="7" height="7" viewBox="0 0 7 7" fill="none" xmlns="http://www.w3.org/2000/svg">
<path d="M2.50357 1.1928C2.94701 0.397601 3.16856 0 3.5 0C3.83144 0 4.05299 0.397601 4.49643 1.1928L4.61122 1.3986C4.73722 1.6247 4.80022 1.73776 4.89822 1.81231C4.99621 1.88686 5.11871 1.91451 5.36371 1.96981L5.5863 2.02021C6.44728 2.21516 6.87742 2.31246 6.97997 2.64181C7.08217 2.97081 6.78887 3.31416 6.20194 4.00051L6.05004 4.17796C5.88344 4.37291 5.7998 4.47056 5.76235 4.59096C5.7249 4.71171 5.7375 4.84191 5.7627 5.10197L5.7858 5.33892C5.87434 6.25487 5.91879 6.71267 5.6507 6.91602C5.38261 7.11972 4.97941 6.93387 4.17373 6.56287L3.96479 6.46697C3.73589 6.36127 3.62145 6.30877 3.5 6.30877C3.37855 6.30877 3.26411 6.36127 3.03486 6.46697L2.82662 6.56287C2.02058 6.93387 1.61739 7.11937 1.34965 6.91637C1.08121 6.71267 1.12566 6.25487 1.2142 5.33892L1.2373 5.10232C1.2625 4.84191 1.2751 4.71171 1.2373 4.59131C1.2002 4.47056 1.11656 4.37291 0.94996 4.17831L0.798064 4.00051C0.211127 3.31451 -0.0821658 2.97116 0.0200318 2.64181C0.122579 2.31246 0.553069 2.21481 1.41405 2.02021L1.63664 1.96981C1.88129 1.91451 2.00344 1.88686 2.10178 1.81231C2.19978 1.73776 2.26278 1.6247 2.38878 1.3986L2.50357 1.1928Z" fill="#FFC700"/>
</svg>
