<svg width="18" height="17" viewBox="0 0 18 17" fill="none" xmlns="http://www.w3.org/2000/svg">
<path d="M15.6572 8.79797L9.00741 15.5323L2.35761 8.79797C1.919 8.36154 1.57351 7.83697 1.3429 7.2573C1.11229 6.67763 1.00155 6.05542 1.01767 5.42984C1.03378 4.80426 1.1764 4.18887 1.43654 3.62242C1.69667 3.05596 2.06869 2.55072 2.52917 2.13851C2.98965 1.72629 3.52861 1.41604 4.11211 1.22727C4.69561 1.03851 5.31102 0.975326 5.91957 1.04171C6.52813 1.10809 7.11665 1.30259 7.64809 1.61297C8.17952 1.92335 8.64234 2.34288 9.00741 2.84514C9.37407 2.34652 9.83743 1.93066 10.3685 1.62357C10.8996 1.31649 11.4869 1.1248 12.0937 1.06049C12.7006 0.996185 13.3139 1.06065 13.8953 1.24986C14.4766 1.43906 15.0135 1.74893 15.4724 2.16007C15.9313 2.57121 16.3022 3.07477 16.562 3.63924C16.8217 4.2037 16.9648 4.81692 16.9821 5.44052C16.9995 6.06411 16.8908 6.68465 16.6628 7.2633C16.4348 7.84195 16.0925 8.36626 15.6572 8.80341" stroke="#F54748" stroke-width="2" stroke-linecap="round" stroke-linejoin="round"/>
</svg>
