<svg width="12" height="12" viewBox="0 0 12 12" fill="none" xmlns="http://www.w3.org/2000/svg">
<path d="M11.1429 6.65766H6.85716V10.8187C6.85716 11.0394 6.76685 11.2511 6.60611 11.4072C6.44536 11.5632 6.22734 11.6509 6.00001 11.6509C5.77268 11.6509 5.55467 11.5632 5.39392 11.4072C5.23317 11.2511 5.14287 11.0394 5.14287 10.8187V6.65766H0.857145C0.629816 6.65766 0.411798 6.56998 0.251052 6.41392C0.0903062 6.25785 0 6.04617 0 5.82546C0 5.60474 0.0903062 5.39306 0.251052 5.237C0.411798 5.08093 0.629816 4.99325 0.857145 4.99325H5.14287V0.832208C5.14287 0.611493 5.23317 0.399817 5.39392 0.243748C5.55467 0.0876786 5.77268 0 6.00001 0C6.22734 0 6.44536 0.0876786 6.60611 0.243748C6.76685 0.399817 6.85716 0.611493 6.85716 0.832208V4.99325H11.1429C11.3702 4.99325 11.5882 5.08093 11.749 5.237C11.9097 5.39306 12 5.60474 12 5.82546C12 6.04617 11.9097 6.25785 11.749 6.41392C11.5882 6.56998 11.3702 6.65766 11.1429 6.65766Z" fill="#FAFAFA"/>
</svg>
