<svg width="15" height="11" viewBox="0 0 15 11" fill="none" xmlns="http://www.w3.org/2000/svg">
<path fill-rule="evenodd" clip-rule="evenodd" d="M0.879 0.80575C-8.9407e-08 1.61081 0 2.90744 0 5.5C0 8.09256 -8.9407e-08 9.38919 0.879 10.1942C1.75725 11 3.17175 11 6 11H9C11.8282 11 13.2427 11 14.121 10.1942C15 9.38919 15 8.09256 15 5.5C15 2.90744 15 1.61081 14.121 0.80575C13.2427 -8.19564e-08 11.8282 0 9 0H6C3.17175 0 1.75725 -8.19564e-08 0.879 0.80575ZM12.432 2.42C12.5274 2.52504 12.5735 2.66052 12.56 2.79666C12.5465 2.9328 12.4745 3.05846 12.36 3.146L10.713 4.40413C10.0478 4.91288 9.50925 5.324 9.033 5.6045C8.538 5.89669 8.05575 6.08094 7.5 6.08094C6.94425 6.08094 6.462 5.896 5.96625 5.6045C5.49075 5.324 4.95225 4.91219 4.287 4.40481L2.64 3.14669C2.52533 3.05917 2.45328 2.93347 2.43971 2.79726C2.42613 2.66104 2.47215 2.52546 2.56763 2.42034C2.6631 2.31523 2.80022 2.24918 2.94882 2.23674C3.09742 2.2243 3.24533 2.26648 3.36 2.354L4.98 3.59081C5.67975 4.125 6.165 4.49488 6.576 4.73688C6.97275 4.97063 7.242 5.04969 7.50075 5.04969C7.7595 5.04969 8.02875 4.97131 8.4255 4.73688C8.83575 4.49488 9.32175 4.125 10.0215 3.59081L11.6407 2.35331C11.7554 2.26591 11.9033 2.22383 12.0518 2.23634C12.2003 2.24885 12.3366 2.31491 12.432 2.42Z" fill="#BBDCE1"/>
</svg>
