<svg width="17" height="16" viewBox="0 0 17 16" fill="none" xmlns="http://www.w3.org/2000/svg">
<path d="M15.4259 2.46154H12.75L12.1125 0.465934C12.0685 0.32938 11.9877 0.211345 11.8814 0.127951C11.775 0.0445569 11.6482 -0.000128048 11.5183 2.75611e-07H5.48171C5.21609 2.75611e-07 4.97801 0.186813 4.88947 0.465934L4.25 2.46154H1.57407C0.704398 2.46154 0 3.24835 0 4.21978V14.2418C0 15.2132 0.704398 16 1.57407 16H15.4259C16.2956 16 17 15.2132 17 14.2418V4.21978C17 3.24835 16.2956 2.46154 15.4259 2.46154ZM15.5833 14.2418C15.5833 14.3385 15.5125 14.4176 15.4259 14.4176H1.57407C1.4875 14.4176 1.41667 14.3385 1.41667 14.2418V4.21978C1.41667 4.12308 1.4875 4.04396 1.57407 4.04396H5.24757L5.58403 2.99341L6.03461 1.58242H10.9634L11.414 2.99341L11.7505 4.04396H15.4259C15.5125 4.04396 15.5833 4.12308 15.5833 4.21978V14.2418ZM8.5 5.45055C6.76065 5.45055 5.35185 7.02418 5.35185 8.96703C5.35185 10.9099 6.76065 12.4835 8.5 12.4835C10.2394 12.4835 11.6481 10.9099 11.6481 8.96703C11.6481 7.02418 10.2394 5.45055 8.5 5.45055ZM8.5 11.0769C7.45718 11.0769 6.61111 10.1319 6.61111 8.96703C6.61111 7.8022 7.45718 6.85714 8.5 6.85714C9.54282 6.85714 10.3889 7.8022 10.3889 8.96703C10.3889 10.1319 9.54282 11.0769 8.5 11.0769Z" fill="#15245B"/>
</svg>
