<svg width="352" height="360" viewBox="0 0 352 360" fill="none" xmlns="http://www.w3.org/2000/svg">
<path d="M71.5046 15.001L77.6385 8.86654C78.5013 8.0036 79.7109 7.58172 80.9232 7.72084L109.506 11.0008L213.511 24.5016L230.158 27.1299C231.609 27.359 232.817 28.3647 233.306 29.7498L235.513 36.0022L255.514 76.0044L286.016 133.507L308.017 175.51L320.518 199.511L323.318 204.645C323.45 204.889 323.558 205.145 323.637 205.411L329.866 226.175C330.502 228.294 329.298 230.526 327.178 231.158L302.516 238.513L280.96 244.98C279.001 245.568 277.801 247.539 278.178 249.549L280.515 262.014" stroke="white" stroke-width="3"/>
<path d="M280.62 261.25L273.793 277.114L269.015 286.015L285.34 299.356L285.012 315.354" stroke="white" stroke-width="3" stroke-linejoin="round" stroke-dasharray="3 1.5"/>
<rect x="130.077" y="9.522" width="10.0005" height="10.0005" rx="5" transform="rotate(1.17516 130.077 9.522)" fill="white"/>
<rect x="132.036" y="11.5631" width="6.00033" height="6.00033" rx="3" transform="rotate(1.17516 132.036 11.5631)" fill="white"/>
<rect x="208.218" y="20.0011" width="10.0005" height="10.0005" rx="5" transform="rotate(1.17516 208.218 20.0011)" fill="white"/>
<rect x="210.177" y="22.0422" width="6.00033" height="6.00033" rx="3" transform="rotate(1.17516 210.177 22.0422)" fill="white"/>
<rect x="246.22" y="61.0033" width="10.0005" height="10.0005" rx="5" transform="rotate(1.17516 246.22 61.0033)" fill="white"/>
<rect x="248.179" y="63.0444" width="6.00033" height="6.00033" rx="3" transform="rotate(1.17516 248.179 63.0444)" fill="white"/>
<rect x="270.221" y="109.006" width="10.0005" height="10.0005" rx="5" transform="rotate(1.17516 270.221 109.006)" fill="white"/>
<rect x="272.18" y="111.047" width="6.00033" height="6.00033" rx="3" transform="rotate(1.17516 272.18 111.047)" fill="white"/>
<rect x="272.364" y="252.014" width="17.0009" height="17.0009" rx="8.5" transform="rotate(1.17516 272.364 252.014)" fill="white"/>
<rect x="275.028" y="254.789" width="11.5606" height="11.5606" rx="5.78" transform="rotate(1.17516 275.028 254.789)" fill="white"/>
<rect x="277.692" y="257.565" width="6.12033" height="6.12033" rx="3.06" transform="rotate(1.17516 277.692 257.565)" fill="white"/>
<rect x="291.222" y="149.008" width="10.0005" height="10.0005" rx="5" transform="rotate(1.17516 291.222 149.008)" fill="white"/>
<rect x="293.181" y="151.049" width="6.00033" height="6.00033" rx="3" transform="rotate(1.17516 293.181 151.049)" fill="white"/>
<rect x="312.223" y="189.01" width="10.0005" height="10.0005" rx="5" transform="rotate(1.17516 312.223 189.01)" fill="white"/>
<rect x="314.183" y="191.051" width="6.00033" height="6.00033" rx="3" transform="rotate(1.17516 314.183 191.051)" fill="white"/>
<rect x="311.221" y="228.012" width="10.0005" height="10.0005" rx="5" transform="rotate(1.17516 311.221 228.012)" fill="white"/>
<rect x="313.181" y="230.053" width="6.00033" height="6.00033" rx="3" transform="rotate(1.17516 313.181 230.053)" fill="white"/>
<path d="M38.1506 29.1418L41.2538 26.1504C42.7919 24.6677 45.2235 24.6553 46.7767 26.1222L50.5692 29.704C51.9773 31.0339 54.136 31.164 55.6936 30.0127L64.1062 23.7946C64.3697 23.5999 64.6082 23.3736 64.8164 23.1207L71.5033 15.001" stroke="#1F1F1F" stroke-width="3" stroke-linejoin="round" stroke-dasharray="2 1.5"/>
<rect x="273.508" y="297.016" width="24.0013" height="24.0013" rx="12" transform="rotate(1.17516 273.508 297.016)" fill="url(#paint0_linear_254_8557)"/>
<rect x="277.268" y="300.934" width="16.3209" height="16.3209" rx="8.16" transform="rotate(1.17516 277.268 300.934)" fill="white"/>
<rect x="281.343" y="305.179" width="8.64047" height="8.64047" rx="4.32" transform="rotate(1.17516 281.343 305.179)" fill="url(#paint1_linear_254_8557)"/>
<circle cx="37.9592" cy="28.9583" r="22.5012" transform="rotate(1.17516 37.9592 28.9583)" fill="black" fill-opacity="0.15"/>
<rect x="27.6767" y="18.2451" width="22.0012" height="22.0012" rx="11" transform="rotate(1.17516 27.6767 18.2451)" fill="white"/>
<rect x="34.5326" y="25.3871" width="8.00043" height="8.00043" rx="4" transform="rotate(1.17516 34.5326 25.3871)" fill="white"/>
<rect x="63.3525" y="6.00033" width="17.0009" height="17.0009" rx="8.5" transform="rotate(1.17516 63.3525 6.00033)" fill="white"/>
<rect x="66.0167" y="8.77587" width="11.5606" height="11.5606" rx="5.78" transform="rotate(1.17516 66.0167 8.77587)" fill="white"/>
<rect x="68.6809" y="11.5514" width="6.12033" height="6.12033" rx="3.06" transform="rotate(1.17516 68.6809 11.5514)" fill="white"/>
<defs>
<linearGradient id="paint0_linear_254_8557" x1="285.509" y1="297.016" x2="285.509" y2="321.017" gradientUnits="userSpaceOnUse">
<stop offset="0.0001" stop-color="#FF9F40"/>
<stop offset="0.510417" stop-color="#FFA851"/>
<stop offset="1" stop-color="#FFC286"/>
</linearGradient>
<linearGradient id="paint1_linear_254_8557" x1="285.663" y1="305.179" x2="285.663" y2="313.819" gradientUnits="userSpaceOnUse">
<stop offset="0.0001" stop-color="#FF9F40"/>
<stop offset="0.510417" stop-color="#FFA851"/>
<stop offset="1" stop-color="#FFC286"/>
</linearGradient>
</defs>
</svg>
