<svg width="19" height="19" viewBox="0 0 19 19" fill="none" xmlns="http://www.w3.org/2000/svg">
<path d="M17.1304 4.57737L11.6638 0.748438C10.1738 -0.29668 7.88661 -0.239674 6.45355 0.871952L1.6988 4.58687C0.74975 5.32796 0 6.84813 0 8.04526V14.601C0 17.0238 1.96454 19 4.38461 19H14.6154C17.0355 19 19 17.0333 19 14.6105V8.16878C19 6.88613 18.1743 5.30895 17.1304 4.57737ZM10.2118 15.1996C10.2118 15.5891 9.88911 15.9122 9.5 15.9122C9.11089 15.9122 8.78821 15.5891 8.78821 15.1996V12.3492C8.78821 11.9597 9.11089 11.6367 9.5 11.6367C9.88911 11.6367 10.2118 11.9597 10.2118 12.3492V15.1996Z" fill="#061737"/>
</svg>
