<svg width="30" height="24" viewBox="0 0 30 24" fill="none" xmlns="http://www.w3.org/2000/svg">
<path d="M10.1283 24H19.7453C20.3729 24 20.8817 23.4843 20.8817 22.8483V22.6806C20.8817 22.0445 20.3729 21.5289 19.7453 21.5289H10.1283C9.50067 21.5289 8.99187 22.0445 8.99187 22.6806V22.8483C8.99187 23.4843 9.50067 24 10.1283 24Z" fill="#263238"/>
<path d="M14.5224 5.72726H15.3527V1.47289H14.5224L14.5224 5.72726Z" fill="#263238"/>
<path d="M27.6329 18.3927C28.9439 18.0769 29.754 16.7438 29.4424 15.4152C29.1308 14.0866 27.8155 13.2655 26.5046 13.5813C25.1936 13.8971 24.3835 15.2302 24.6951 16.5588C25.0066 17.8874 26.322 18.7085 27.6329 18.3927Z" fill="#90CAF9"/>
<path d="M2.97996 18.2327C4.29405 17.9306 5.1177 16.6061 4.81963 15.2743C4.52155 13.9425 3.21464 13.1077 1.90055 13.4098C0.586461 13.7119 -0.237183 15.0364 0.0608882 16.3682C0.35896 17.7 1.66587 18.5348 2.97996 18.2327Z" fill="#90CAF9"/>
<path d="M14.4544 4.80459C14.4544 4.80459 4.53441 4.68393 2.96662 13.398C1.39883 22.112 9.7851 22.2687 12.1986 22.4332C13.2918 22.5084 15.6326 22.5163 17.6983 22.4787C22.2717 22.3987 25.5032 21.5024 26.6025 17.2026C26.7334 16.6984 26.8157 16.1826 26.8483 15.6623C27.1374 10.9425 23.9941 4.57268 14.4544 4.80459Z" fill="#90CAF9"/>
<path d="M21.6502 18.0673L7.23859 18.2945C6.87901 18.3009 6.52171 18.2354 6.18713 18.1018C5.85256 17.9681 5.54729 17.7688 5.28878 17.5154C5.03028 17.262 4.82363 16.9594 4.68065 16.625C4.53767 16.2906 4.46117 15.9308 4.45553 15.5664C4.44939 15.2019 4.51421 14.8397 4.64629 14.5006C4.77837 14.1615 4.97511 13.8522 5.22526 13.5902C5.47542 13.3282 5.77407 13.1188 6.10415 12.9739C6.43423 12.829 6.78925 12.7515 7.14891 12.7458L21.5605 12.5186C21.9201 12.5119 22.2775 12.5773 22.6122 12.7109C22.9468 12.8445 23.2522 13.0438 23.5107 13.2972C23.7693 13.5506 23.9759 13.8533 24.1188 14.1878C24.2618 14.5224 24.3381 14.8822 24.3435 15.2467C24.3499 15.6113 24.2852 15.9735 24.1532 16.3127C24.0212 16.6519 23.8245 16.9613 23.5743 17.2234C23.3241 17.4854 23.0254 17.6948 22.6952 17.8396C22.365 17.9844 22.0099 18.0618 21.6502 18.0673Z" fill="#263238"/>
<path d="M10.2334 15.2638C10.1999 15.4365 10.1166 15.5952 9.99403 15.7199C9.8715 15.8447 9.71522 15.9298 9.54496 15.9645C9.3747 15.9993 9.19811 15.982 9.0375 15.9151C8.87689 15.8481 8.73948 15.7344 8.64265 15.5882C8.54581 15.4421 8.4939 15.2702 8.49347 15.0942C8.49304 14.9182 8.54412 14.746 8.64024 14.5994C8.73636 14.4528 8.87321 14.3384 9.03349 14.2706C9.19377 14.2028 9.37028 14.1847 9.5407 14.2186C9.65392 14.2411 9.76164 14.286 9.85773 14.3507C9.95381 14.4154 10.0364 14.4987 10.1007 14.5957C10.165 14.6928 10.2099 14.8017 10.2326 14.9164C10.2554 15.031 10.2556 15.149 10.2334 15.2638Z" fill="white"/>
<path d="M20.2974 15.1011C20.2642 15.2739 20.1811 15.4329 20.0587 15.5579C19.9363 15.6828 19.78 15.7682 19.6097 15.8032C19.4394 15.8381 19.2627 15.8211 19.102 15.7542C18.9413 15.6874 18.8037 15.5737 18.7067 15.4276C18.6097 15.2815 18.5577 15.1095 18.5572 14.9334C18.5567 14.7573 18.6077 14.585 18.7039 14.4384C18.8 14.2917 18.9369 14.1772 19.0973 14.1094C19.2576 14.0416 19.4342 14.0235 19.6047 14.0575C19.833 14.1029 20.0342 14.2384 20.1641 14.434C20.294 14.6297 20.3419 14.8696 20.2974 15.1011Z" fill="white"/>
<path d="M15.906 2.36749C16.4403 1.82592 16.4403 0.947857 15.906 0.406283C15.3716 -0.13529 14.5052 -0.135289 13.9709 0.406284C13.4365 0.947857 13.4365 1.82592 13.9709 2.36749C14.5052 2.90907 15.3716 2.90907 15.906 2.36749Z" fill="#90CAF9"/>
<path d="M12.7523 14.8536C12.8172 14.8614 12.7847 15.167 12.9764 15.5854C13.0851 15.8255 13.2432 16.0393 13.4403 16.2122C13.6713 16.4181 13.9588 16.5477 14.2644 16.5835C14.5716 16.6036 14.8777 16.5294 15.1426 16.3704C15.3668 16.2383 15.5607 16.0594 15.7116 15.8455C15.9744 15.4741 15.9976 15.1623 16.0625 15.167C16.0888 15.167 16.1151 15.2453 16.1151 15.3926C16.1092 15.6025 16.0564 15.8083 15.9605 15.9944C15.8164 16.2756 15.6035 16.5147 15.342 16.6885C15.0188 16.9194 14.6251 17.0261 14.2314 16.9896C13.8376 16.9532 13.4695 16.7759 13.1929 16.4895C12.9671 16.2707 12.801 15.9965 12.7105 15.6935C12.6461 15.4913 12.6291 15.2767 12.661 15.0667C12.6873 14.921 12.7275 14.8489 12.7523 14.8536Z" fill="white"/>
<path d="M25.9609 18.9133C25.9454 18.9133 26.1232 18.6313 26.2949 18.1377C26.5083 17.4912 26.6433 16.8209 26.6969 16.1413C26.7588 15.4642 26.7743 14.7836 26.7432 14.1043C26.7324 13.8426 26.7201 13.6342 26.7077 13.4775C26.6972 13.4017 26.6946 13.325 26.7 13.2487C26.7198 13.3225 26.7327 13.3981 26.7386 13.4743C26.7603 13.6201 26.7819 13.8316 26.8005 14.1011C26.8489 14.7859 26.8412 15.4736 26.7773 16.157C26.7229 16.8429 26.5788 17.5184 26.349 18.1659C26.2762 18.3612 26.1883 18.5503 26.0861 18.7316C26.0496 18.7957 26.0077 18.8565 25.9609 18.9133Z" fill="#263238"/>
<path d="M2.98525 13.1061C2.97649 13.1822 2.96044 13.2572 2.93732 13.3302C2.91722 13.4007 2.89557 13.4869 2.87547 13.5903C2.85537 13.6937 2.82445 13.8065 2.80589 13.9366C2.75169 14.2386 2.71554 14.5437 2.69766 14.8502C2.67687 15.2251 2.68203 15.601 2.71313 15.9752C2.74767 16.3488 2.8076 16.7195 2.89248 17.0847C2.96346 17.3834 3.05227 17.6775 3.15841 17.9653C3.20016 18.0891 3.24809 18.1972 3.28674 18.2944C3.3254 18.3915 3.3625 18.473 3.39343 18.5388C3.42868 18.6065 3.45766 18.6773 3.48001 18.7504C3.43601 18.6882 3.39771 18.6222 3.3656 18.5529C3.32189 18.4746 3.28215 18.3941 3.24654 18.3116C3.20325 18.2176 3.15068 18.1095 3.10585 17.9857C2.99105 17.6986 2.89599 17.4038 2.82135 17.1035C2.73087 16.7348 2.66782 16.3598 2.63273 15.9815C2.60122 15.6036 2.59812 15.2238 2.62345 14.8455C2.64501 14.5363 2.68737 14.229 2.75023 13.9256C2.77342 13.7956 2.80589 13.6812 2.83218 13.5793C2.85846 13.4775 2.8832 13.3913 2.90639 13.3208C2.92689 13.2472 2.95326 13.1754 2.98525 13.1061Z" fill="#263238"/>
<path d="M13.1974 5.45615C13.1855 5.45729 13.1736 5.45729 13.1618 5.45615L13.0582 5.46712C12.9654 5.47652 12.8294 5.47966 12.6547 5.50003C12.1617 5.54852 11.6725 5.63071 11.1905 5.74604C8.69726 6.32474 6.49816 7.80575 5.00591 9.9111C4.28496 10.9228 3.73911 12.0515 3.39174 13.2488C3.33762 13.418 3.30824 13.5528 3.28196 13.6421L3.25258 13.7455C3.24981 13.7575 3.24565 13.769 3.24021 13.78C3.23816 13.7681 3.23816 13.7559 3.24021 13.744C3.24021 13.7157 3.25258 13.6813 3.26186 13.639C3.28351 13.5481 3.3067 13.4118 3.35617 13.2394C3.48522 12.7526 3.65062 12.2764 3.85094 11.815C4.51182 10.2817 5.51792 8.9266 6.78861 7.85834C8.06471 6.79814 9.56798 6.05542 11.1781 5.68963C11.663 5.57798 12.1556 5.50411 12.6516 5.46869C12.8278 5.45302 12.9608 5.45458 13.0567 5.44988H13.1618C13.1865 5.45302 13.1974 5.45459 13.1974 5.45615Z" fill="white"/>
<path d="M3.49219 17.5192C3.43022 17.4221 3.38232 17.3166 3.34994 17.2058C3.16654 16.6821 3.08107 16.1284 3.09792 15.573C3.09351 15.4577 3.10707 15.3424 3.13812 15.2314C3.16286 15.2314 3.12884 15.7547 3.2278 16.3878C3.32675 17.0209 3.51538 17.5098 3.49219 17.5192Z" fill="white"/>
<path d="M0.890079 16.7087C0.890079 16.7087 0.854517 16.6837 0.806587 16.6241C0.738261 16.5397 0.679645 16.4477 0.631873 16.3499C0.466762 16.026 0.403586 15.6586 0.45086 15.2971C0.498133 14.9357 0.653583 14.5976 0.896263 14.3285C0.967344 14.2461 1.04779 14.1724 1.13592 14.1091C1.16618 14.0833 1.20073 14.0631 1.23796 14.0496C1.24724 14.0621 1.10808 14.1577 0.939555 14.363C0.71837 14.6314 0.576848 14.958 0.531418 15.3047C0.485988 15.6514 0.538514 16.004 0.682896 16.3217C0.791126 16.5709 0.900902 16.6993 0.890079 16.7087Z" fill="white"/>
<path d="M15.0265 0.420447C14.9059 0.406989 14.7843 0.404367 14.6632 0.412612C14.519 0.425436 14.3796 0.471568 14.2557 0.547467C14.1318 0.623367 14.0267 0.727018 13.9485 0.850468C13.8703 0.973917 13.821 1.11389 13.8045 1.25963C13.7879 1.40538 13.8045 1.55304 13.853 1.69127C13.8947 1.80592 13.9465 1.91657 14.0076 2.02191C14.0076 2.02191 13.9767 2.00311 13.9334 1.95296C13.874 1.88042 13.827 1.79833 13.7943 1.71008C13.7353 1.56375 13.7119 1.40518 13.7262 1.24778C13.7405 1.09037 13.792 0.938773 13.8763 0.805805C13.9606 0.672838 14.0753 0.562416 14.2107 0.483883C14.346 0.405349 14.4981 0.361015 14.6539 0.354634C14.7465 0.348126 14.8395 0.357126 14.9291 0.381272C14.9987 0.392241 15.0265 0.415746 15.0265 0.420447Z" fill="white"/>
<path d="M28.5027 14.8077C28.4857 14.8265 28.246 14.593 27.8842 14.4175C27.5225 14.242 27.1931 14.1903 27.1962 14.1653C27.4483 14.1589 27.6975 14.2206 27.9183 14.3439C28.1507 14.4424 28.3526 14.6027 28.5027 14.8077Z" fill="white"/>
<path d="M19.2693 12.0129C19.2693 12.0348 17.3706 12.0536 15.0297 12.0536C12.6889 12.0536 10.7887 12.0348 10.7887 12.0129C10.7887 11.991 12.6873 11.9722 15.0297 11.9722C17.3721 11.9722 19.2693 11.9878 19.2693 12.0129Z" fill="white"/>
<path d="M12.0331 21.8106C12.01 21.8173 11.9861 21.8209 11.962 21.8216L11.7548 21.8404C11.6652 21.8482 11.5554 21.8545 11.4271 21.8576C11.2987 21.8608 11.1534 21.8671 10.9926 21.8576C10.6695 21.8576 10.286 21.8341 9.86082 21.7887C9.40069 21.7344 8.94388 21.6544 8.49249 21.549C8.04215 21.4395 7.59823 21.3045 7.1628 21.1447C6.80804 21.013 6.46022 20.8629 6.12071 20.6949C5.96609 20.626 5.84704 20.5539 5.73417 20.4928C5.6213 20.4317 5.52544 20.3768 5.44813 20.3361L5.27033 20.2264C5.24925 20.2146 5.22954 20.2004 5.21157 20.1841C5.21157 20.1841 5.23631 20.1841 5.27806 20.2123L5.4636 20.3079C5.54245 20.3518 5.63986 20.4035 5.75427 20.4646C5.86868 20.5257 5.99856 20.5884 6.14544 20.6542C6.43612 20.7921 6.79018 20.9394 7.18909 21.0851C8.05607 21.4001 8.95547 21.6146 9.8701 21.7245C10.2906 21.7746 10.6725 21.8028 10.9926 21.8106C11.1472 21.82 11.3018 21.8106 11.4271 21.8106C11.5523 21.8106 11.6636 21.8106 11.7533 21.8106H11.9605C11.9845 21.8066 12.0091 21.8066 12.0331 21.8106Z" fill="white"/>
</svg>
