<svg width="17" height="18" viewBox="0 0 17 18" fill="none" xmlns="http://www.w3.org/2000/svg">
<path d="M15.2652 17.0605C16.0316 17.0605 16.653 16.2967 16.653 15.3544C16.653 14.4122 16.0316 13.6484 15.2652 13.6484C14.4988 13.6484 13.8774 14.4122 13.8774 15.3544C13.8774 16.2967 14.4988 17.0605 15.2652 17.0605Z" fill="#15245B"/>
<path d="M5.20416 17.0605C5.9706 17.0605 6.59192 16.2967 6.59192 15.3544C6.59192 14.4122 5.9706 13.6484 5.20416 13.6484C4.43773 13.6484 3.81641 14.4122 3.81641 15.3544C3.81641 16.2967 4.43773 17.0605 5.20416 17.0605Z" fill="#15245B"/>
<path d="M16.3061 11.5156H5.47157L5.70298 11.0541C5.8022 10.8562 5.83135 10.6169 5.78382 10.3917L5.55796 9.32293L15.6133 8.68061C15.9946 8.65673 16.3061 8.25283 16.3061 7.78368V2.13251C16.3061 1.66336 15.9939 1.27951 15.6122 1.27951H3.85761L3.72196 0.638475C3.68331 0.455644 3.59639 0.293756 3.47483 0.178204C3.35327 0.0626517 3.20395 -2.69475e-05 3.05029 8.69112e-09H0.693878C0.50985 8.69112e-09 0.333359 0.0898699 0.203232 0.24984C0.0731048 0.409809 0 0.626774 0 0.853006C0 1.07924 0.0731048 1.2962 0.203232 1.45617C0.333359 1.61614 0.50985 1.70601 0.693878 1.70601H2.51392L4.36657 10.4685L3.638 11.9208C3.5732 12.05 3.53764 12.1981 3.53502 12.3499C3.5324 12.5016 3.5628 12.6515 3.62308 12.784C3.68312 12.9166 3.7709 13.0271 3.87734 13.1041C3.98378 13.181 4.10501 13.2216 4.22849 13.2216H16.3061C16.4902 13.2216 16.6666 13.1317 16.7968 12.9717C16.9269 12.8118 17 12.5948 17 12.3686C17 12.1424 16.9269 11.9254 16.7968 11.7654C16.6666 11.6054 16.4902 11.5156 16.3061 11.5156Z" fill="#15245B"/>
</svg>
