<svg width="22" height="24" viewBox="0 0 22 24" fill="none" xmlns="http://www.w3.org/2000/svg">
<path d="M8.73404 1.4997C8.91665 1.0566 9.22989 0.67713 9.6336 0.409938C10.0373 0.142745 10.5131 0 11 0C11.4869 0 11.9627 0.142745 12.3664 0.409938C12.7701 0.67713 13.0834 1.0566 13.266 1.4997C15.0733 1.98766 16.6675 3.0446 17.8037 4.50818C18.9399 5.97176 19.5553 7.76105 19.5554 9.60124V15.2371L21.7945 18.5343C21.9173 18.715 21.9878 18.925 21.9986 19.142C22.0093 19.359 21.9598 19.5748 21.8554 19.7663C21.7511 19.9578 21.5957 20.118 21.4058 20.2296C21.216 20.3412 20.9989 20.4001 20.7776 20.4001H15.2349C15.0878 21.3997 14.5787 22.3138 13.8009 22.975C13.0232 23.6361 12.0288 24 11 24C9.9712 24 8.97684 23.6361 8.19908 22.975C7.42132 22.3138 6.91223 21.3997 6.76507 20.4001H1.22239C1.00111 20.4001 0.783985 20.3412 0.594162 20.2296C0.40434 20.118 0.248945 19.9578 0.144557 19.7663C0.0401689 19.5748 -0.00929576 19.359 0.00143957 19.142C0.0121749 18.925 0.0827076 18.715 0.205513 18.5343L2.44459 15.2371V9.60124C2.44459 5.73285 5.10899 2.47399 8.73404 1.4997ZM9.27181 20.4001C9.39803 20.7513 9.63209 21.0553 9.94172 21.2704C10.2514 21.4855 10.6213 21.601 11.0006 21.601C11.3799 21.601 11.7499 21.4855 12.0595 21.2704C12.3691 21.0553 12.6032 20.7513 12.7294 20.4001H9.27059H9.27181ZM11 3.60187C9.37926 3.60187 7.8249 4.23395 6.67886 5.35905C5.53283 6.48415 4.88899 8.01011 4.88899 9.60124V15.6006C4.88904 15.8376 4.8176 16.0693 4.68366 16.2665L3.50668 18.0004H18.4921L17.3151 16.2665C17.1816 16.0692 17.1106 15.8375 17.111 15.6006V9.60124C17.111 8.01011 16.4672 6.48415 15.3211 5.35905C14.1751 4.23395 12.6207 3.60187 11 3.60187Z" fill="#15245B"/>
</svg>
